<mxfile host="65bd71144e">
    <diagram id="u-e9uB5J4vBUebW7OUAc" name="Fluxo de Dados">
        <mxGraphModel dx="863" dy="993" grid="1" gridSize="10" guides="1" tooltips="1" connect="1" arrows="1" fold="1" page="1" pageScale="1" pageWidth="1654" pageHeight="1169" math="0" shadow="0">
            <root>
                <mxCell id="0"/>
                <mxCell id="1" parent="0"/>
                <mxCell id="HCzMXFjVByPyqKeKTgKt-1" value="&lt;p style=&quot;line-height: 0%;&quot;&gt;&lt;font style=&quot;background-color: initial; font-size: 20px;&quot;&gt;Fontes de Dad&lt;/font&gt;&lt;span style=&quot;background-color: initial;&quot;&gt;os&lt;/span&gt;&lt;br&gt;&lt;/p&gt;" style="swimlane;whiteSpace=wrap;html=1;fontColor=#999999;fontFamily=Anton;fontSource=https%3A%2F%2Ffonts.googleapis.com%2Fcss%3Ffamily%3DAnton;labelBackgroundColor=none;labelBorderColor=none;dashed=1;fontStyle=0;gradientColor=none;fontSize=15;swimlaneLine=0;startSize=8;verticalAlign=top;" parent="1" vertex="1">
                    <mxGeometry x="9" y="82" width="310" height="1016" as="geometry">
                        <mxRectangle x="37" y="80" width="132" height="26" as="alternateBounds"/>
                    </mxGeometry>
                </mxCell>
                <mxCell id="HCzMXFjVByPyqKeKTgKt-27" value="CSV, / Excel /Json / Avro / TXT / Etc..." style="sketch=0;pointerEvents=1;shadow=0;dashed=0;html=1;strokeColor=none;fillColor=#505050;labelPosition=center;verticalLabelPosition=bottom;verticalAlign=top;outlineConnect=0;align=center;shape=mxgraph.office.concepts.document_blank;" parent="HCzMXFjVByPyqKeKTgKt-1" vertex="1">
                    <mxGeometry x="111.75" y="78" width="89" height="102" as="geometry"/>
                </mxCell>
                <mxCell id="ah4_rAJGKzIgSM7Z5f6e-22" value="&lt;p style=&quot;line-height: 0%;&quot;&gt;Tópicos Kafka&lt;/p&gt;" style="sketch=0;outlineConnect=0;fontColor=#232F3E;gradientColor=none;strokeColor=#232F3E;fillColor=#ffffff;dashed=0;verticalLabelPosition=bottom;verticalAlign=top;align=center;html=1;fontSize=12;fontStyle=0;aspect=fixed;shape=mxgraph.aws4.resourceIcon;resIcon=mxgraph.aws4.queue;" parent="HCzMXFjVByPyqKeKTgKt-1" vertex="1">
                    <mxGeometry x="84" y="225" width="142" height="142" as="geometry"/>
                </mxCell>
                <mxCell id="dvYF6efYz1JYhduCAZQZ-1" value="" style="strokeColor=#dddddd;shadow=1;strokeWidth=3;rounded=1;absoluteArcSize=1;arcSize=2;verticalAlign=top;" parent="HCzMXFjVByPyqKeKTgKt-1" vertex="1">
                    <mxGeometry x="89.38" y="435" width="131.25" height="44" as="geometry"/>
                </mxCell>
                <mxCell id="dvYF6efYz1JYhduCAZQZ-2" value="&lt;br&gt;&lt;br&gt;&lt;br&gt;&lt;br&gt;&lt;br&gt;Request API" style="sketch=0;dashed=0;connectable=0;html=1;fillColor=#757575;strokeColor=none;shape=mxgraph.gcp2.logs_api;part=1;labelPosition=right;verticalLabelPosition=middle;align=left;verticalAlign=middle;spacingLeft=5;fontSize=12;" parent="dvYF6efYz1JYhduCAZQZ-1" vertex="1">
                    <mxGeometry y="0.5" width="32" height="32" relative="1" as="geometry">
                        <mxPoint x="5" y="-16" as="offset"/>
                    </mxGeometry>
                </mxCell>
                <mxCell id="dvYF6efYz1JYhduCAZQZ-3" value="&lt;p style=&quot;line-height: 0%;&quot;&gt;&lt;br&gt;&lt;/p&gt;&lt;p style=&quot;line-height: 0%;&quot;&gt;&lt;br&gt;&lt;/p&gt;&lt;p style=&quot;line-height: 0%;&quot;&gt;&lt;br&gt;&lt;/p&gt;&lt;p style=&quot;line-height: 0%;&quot;&gt;&lt;br&gt;&lt;/p&gt;&lt;p style=&quot;line-height: 0%;&quot;&gt;&lt;br&gt;&lt;/p&gt;&lt;p style=&quot;line-height: 0%;&quot;&gt;&lt;br&gt;&lt;/p&gt;&lt;p style=&quot;line-height: 0%;&quot;&gt;&lt;br&gt;&lt;/p&gt;&lt;p style=&quot;line-height: 0%;&quot;&gt;&lt;br&gt;&lt;/p&gt;&lt;p style=&quot;line-height: 0%;&quot;&gt;Banco de Dados&lt;/p&gt;" style="shape=datastore;whiteSpace=wrap;html=1;strokeWidth=2;" parent="HCzMXFjVByPyqKeKTgKt-1" vertex="1">
                    <mxGeometry x="101.25" y="594" width="110" height="100" as="geometry"/>
                </mxCell>
                <mxCell id="HCzMXFjVByPyqKeKTgKt-14" value="&lt;font style=&quot;font-size: 20px;&quot;&gt;População do Data Lake&lt;/font&gt;" style="swimlane;whiteSpace=wrap;html=1;fontColor=#999999;fontFamily=Anton;fontSource=https%3A%2F%2Ffonts.googleapis.com%2Fcss%3Ffamily%3DAnton;labelBackgroundColor=none;labelBorderColor=none;dashed=1;fontStyle=0;gradientColor=none;fontSize=15;swimlaneLine=0;verticalAlign=top;" parent="1" vertex="1">
                    <mxGeometry x="370" y="82" width="540" height="1016" as="geometry">
                        <mxRectangle x="37" y="80" width="132" height="26" as="alternateBounds"/>
                    </mxGeometry>
                </mxCell>
                <mxCell id="dvYF6efYz1JYhduCAZQZ-13" style="edgeStyle=none;jumpSize=18;html=1;dashed=1;strokeWidth=2;fontSize=12;endArrow=open;endFill=0;startSize=22;endSize=30;sourcePerimeterSpacing=1;targetPerimeterSpacing=0;" parent="HCzMXFjVByPyqKeKTgKt-14" source="dvYF6efYz1JYhduCAZQZ-4" target="dvYF6efYz1JYhduCAZQZ-7" edge="1">
                    <mxGeometry relative="1" as="geometry"/>
                </mxCell>
                <mxCell id="dvYF6efYz1JYhduCAZQZ-4" value="&lt;font style=&quot;font-size: 24px;&quot;&gt;Enviar para o Data Lake&lt;/font&gt;" style="rounded=1;whiteSpace=wrap;html=1;strokeWidth=3;" parent="HCzMXFjVByPyqKeKTgKt-14" vertex="1">
                    <mxGeometry x="70" y="128" width="190" height="132" as="geometry"/>
                </mxCell>
                <mxCell id="dvYF6efYz1JYhduCAZQZ-12" style="edgeStyle=none;jumpSize=18;html=1;dashed=1;strokeWidth=2;fontSize=12;endArrow=open;endFill=0;startSize=22;endSize=30;sourcePerimeterSpacing=1;targetPerimeterSpacing=0;" parent="HCzMXFjVByPyqKeKTgKt-14" source="dvYF6efYz1JYhduCAZQZ-5" target="dvYF6efYz1JYhduCAZQZ-7" edge="1">
                    <mxGeometry relative="1" as="geometry"/>
                </mxCell>
                <mxCell id="dvYF6efYz1JYhduCAZQZ-5" value="&lt;font style=&quot;font-size: 14px;&quot;&gt;Enviar requisições e blocos de objetos para função lambda como parâmetro ou fonte de dados.&lt;/font&gt;" style="rounded=1;whiteSpace=wrap;html=1;strokeWidth=3;" parent="HCzMXFjVByPyqKeKTgKt-14" vertex="1">
                    <mxGeometry x="70" y="347" width="190" height="132" as="geometry"/>
                </mxCell>
                <mxCell id="dvYF6efYz1JYhduCAZQZ-14" style="edgeStyle=none;jumpSize=18;html=1;dashed=1;strokeWidth=2;fontSize=12;endArrow=open;endFill=0;startSize=22;endSize=30;sourcePerimeterSpacing=1;targetPerimeterSpacing=0;" parent="HCzMXFjVByPyqKeKTgKt-14" source="dvYF6efYz1JYhduCAZQZ-6" target="dvYF6efYz1JYhduCAZQZ-7" edge="1">
                    <mxGeometry relative="1" as="geometry"/>
                </mxCell>
                <mxCell id="dvYF6efYz1JYhduCAZQZ-6" value="&lt;font style=&quot;font-size: 14px;&quot;&gt;Extrair dados do banco e salvar em formato Avro ou CSV no Data Lake&lt;/font&gt;" style="rounded=1;whiteSpace=wrap;html=1;strokeWidth=3;" parent="HCzMXFjVByPyqKeKTgKt-14" vertex="1">
                    <mxGeometry x="70" y="568" width="190" height="132" as="geometry"/>
                </mxCell>
                <mxCell id="dvYF6efYz1JYhduCAZQZ-7" value="" style="shape=datastore;strokeColor=default;fillColor=default;html=1;strokeWidth=3;" parent="HCzMXFjVByPyqKeKTgKt-14" vertex="1">
                    <mxGeometry x="347" y="338" width="173" height="162" as="geometry"/>
                </mxCell>
                <mxCell id="dvYF6efYz1JYhduCAZQZ-24" value="&lt;font style=&quot;font-size: 18px;&quot;&gt;&lt;span style=&quot;color: rgb(0, 0, 0); font-family: Helvetica; font-style: normal; font-variant-ligatures: normal; font-variant-caps: normal; font-weight: 400; letter-spacing: normal; orphans: 2; text-align: center; text-indent: 0px; text-transform: none; widows: 2; word-spacing: 0px; -webkit-text-stroke-width: 0px; background-color: rgb(251, 251, 251); text-decoration-thickness: initial; text-decoration-style: initial; text-decoration-color: initial; float: none; display: inline !important;&quot;&gt;Data Lake Camada Transiente&lt;/span&gt;&lt;br&gt;&lt;/font&gt;" style="text;html=1;strokeColor=none;fillColor=none;align=center;verticalAlign=middle;whiteSpace=wrap;rounded=0;fontSize=16;" parent="HCzMXFjVByPyqKeKTgKt-14" vertex="1">
                    <mxGeometry x="353.5" y="508" width="160" height="80" as="geometry"/>
                </mxCell>
                <mxCell id="dvYF6efYz1JYhduCAZQZ-8" style="edgeStyle=none;html=1;fontSize=14;spacingTop=7;dashed=1;endArrow=open;endFill=0;targetPerimeterSpacing=0;sourcePerimeterSpacing=1;endSize=30;startSize=22;jumpSize=18;strokeWidth=2;" parent="1" source="HCzMXFjVByPyqKeKTgKt-27" target="dvYF6efYz1JYhduCAZQZ-4" edge="1">
                    <mxGeometry relative="1" as="geometry"/>
                </mxCell>
                <mxCell id="dvYF6efYz1JYhduCAZQZ-9" style="edgeStyle=none;jumpSize=18;html=1;dashed=1;strokeWidth=2;fontSize=14;endArrow=open;endFill=0;startSize=22;endSize=30;sourcePerimeterSpacing=1;targetPerimeterSpacing=0;" parent="1" source="ah4_rAJGKzIgSM7Z5f6e-22" target="dvYF6efYz1JYhduCAZQZ-5" edge="1">
                    <mxGeometry relative="1" as="geometry"/>
                </mxCell>
                <mxCell id="dvYF6efYz1JYhduCAZQZ-10" style="edgeStyle=none;jumpSize=18;html=1;entryX=0.008;entryY=0.621;entryDx=0;entryDy=0;entryPerimeter=0;dashed=1;strokeWidth=2;fontSize=14;endArrow=open;endFill=0;startSize=22;endSize=30;sourcePerimeterSpacing=1;targetPerimeterSpacing=0;" parent="1" source="dvYF6efYz1JYhduCAZQZ-1" target="dvYF6efYz1JYhduCAZQZ-5" edge="1">
                    <mxGeometry relative="1" as="geometry"/>
                </mxCell>
                <mxCell id="dvYF6efYz1JYhduCAZQZ-11" style="edgeStyle=none;jumpSize=18;html=1;dashed=1;strokeWidth=2;fontSize=14;endArrow=open;endFill=0;startSize=22;endSize=30;sourcePerimeterSpacing=1;targetPerimeterSpacing=0;" parent="1" source="dvYF6efYz1JYhduCAZQZ-3" target="dvYF6efYz1JYhduCAZQZ-6" edge="1">
                    <mxGeometry relative="1" as="geometry"/>
                </mxCell>
                <mxCell id="dvYF6efYz1JYhduCAZQZ-15" value="&lt;span style=&quot;font-size: 20px;&quot;&gt;Processamento dos dados&lt;/span&gt;" style="swimlane;whiteSpace=wrap;html=1;fontColor=#999999;fontFamily=Anton;fontSource=https%3A%2F%2Ffonts.googleapis.com%2Fcss%3Ffamily%3DAnton;labelBackgroundColor=none;labelBorderColor=none;dashed=1;fontStyle=0;gradientColor=none;fontSize=15;swimlaneLine=0;" parent="1" vertex="1">
                    <mxGeometry x="960" y="82" width="1790" height="1016" as="geometry">
                        <mxRectangle x="37" y="80" width="132" height="26" as="alternateBounds"/>
                    </mxGeometry>
                </mxCell>
                <mxCell id="dvYF6efYz1JYhduCAZQZ-18" style="edgeStyle=none;jumpSize=18;html=1;dashed=1;strokeWidth=2;fontSize=12;endArrow=open;endFill=0;startSize=22;endSize=30;sourcePerimeterSpacing=1;targetPerimeterSpacing=0;" parent="dvYF6efYz1JYhduCAZQZ-15" source="dvYF6efYz1JYhduCAZQZ-19" target="dvYF6efYz1JYhduCAZQZ-22" edge="1">
                    <mxGeometry relative="1" as="geometry"/>
                </mxCell>
                <mxCell id="dvYF6efYz1JYhduCAZQZ-19" value="&lt;font style=&quot;font-size: 18px;&quot;&gt;Processar e formatar dados de cada fonte&lt;/font&gt;" style="rounded=1;whiteSpace=wrap;html=1;strokeWidth=3;" parent="dvYF6efYz1JYhduCAZQZ-15" vertex="1">
                    <mxGeometry x="70" y="347" width="190" height="132" as="geometry"/>
                </mxCell>
                <mxCell id="dvYF6efYz1JYhduCAZQZ-27" style="edgeStyle=none;jumpSize=18;html=1;dashed=1;strokeWidth=2;fontSize=18;endArrow=open;endFill=0;startSize=22;endSize=30;sourcePerimeterSpacing=1;targetPerimeterSpacing=0;" parent="dvYF6efYz1JYhduCAZQZ-15" source="dvYF6efYz1JYhduCAZQZ-22" target="dvYF6efYz1JYhduCAZQZ-26" edge="1">
                    <mxGeometry relative="1" as="geometry"/>
                </mxCell>
                <mxCell id="dvYF6efYz1JYhduCAZQZ-22" value="&lt;p style=&quot;line-height: 0%;&quot;&gt;&lt;br&gt;&lt;/p&gt;" style="shape=datastore;whiteSpace=wrap;html=1;strokeWidth=3;" parent="dvYF6efYz1JYhduCAZQZ-15" vertex="1">
                    <mxGeometry x="347" y="338" width="173" height="162" as="geometry"/>
                </mxCell>
                <mxCell id="dvYF6efYz1JYhduCAZQZ-25" value="&lt;font style=&quot;font-size: 18px;&quot;&gt;&lt;span style=&quot;color: rgb(0, 0, 0); font-family: Helvetica; font-style: normal; font-variant-ligatures: normal; font-variant-caps: normal; font-weight: 400; letter-spacing: normal; orphans: 2; text-align: center; text-indent: 0px; text-transform: none; widows: 2; word-spacing: 0px; -webkit-text-stroke-width: 0px; background-color: rgb(251, 251, 251); text-decoration-thickness: initial; text-decoration-style: initial; text-decoration-color: initial; float: none; display: inline !important;&quot;&gt;Camada Bronze&lt;br&gt;&lt;/span&gt;Dados &quot;semi-crus&quot;&lt;br&gt;&lt;/font&gt;" style="text;html=1;strokeColor=none;fillColor=none;align=center;verticalAlign=middle;whiteSpace=wrap;rounded=0;fontSize=16;" parent="dvYF6efYz1JYhduCAZQZ-15" vertex="1">
                    <mxGeometry x="353.5" y="508" width="160" height="80" as="geometry"/>
                </mxCell>
                <mxCell id="dvYF6efYz1JYhduCAZQZ-29" style="edgeStyle=none;jumpSize=18;html=1;dashed=1;strokeWidth=2;fontSize=18;endArrow=open;endFill=0;startSize=22;endSize=30;sourcePerimeterSpacing=1;targetPerimeterSpacing=0;" parent="dvYF6efYz1JYhduCAZQZ-15" source="dvYF6efYz1JYhduCAZQZ-26" target="dvYF6efYz1JYhduCAZQZ-28" edge="1">
                    <mxGeometry relative="1" as="geometry"/>
                </mxCell>
                <mxCell id="dvYF6efYz1JYhduCAZQZ-26" value="&lt;font style=&quot;font-size: 18px;&quot;&gt;Aplicar e validar regras de negócio de cada fonte&lt;/font&gt;" style="rounded=1;whiteSpace=wrap;html=1;strokeWidth=3;" parent="dvYF6efYz1JYhduCAZQZ-15" vertex="1">
                    <mxGeometry x="640" y="353" width="190" height="132" as="geometry"/>
                </mxCell>
                <mxCell id="dvYF6efYz1JYhduCAZQZ-38" style="edgeStyle=none;jumpSize=18;html=1;dashed=1;strokeWidth=2;fontSize=18;endArrow=open;endFill=0;startSize=22;endSize=30;sourcePerimeterSpacing=1;targetPerimeterSpacing=0;" parent="dvYF6efYz1JYhduCAZQZ-15" source="dvYF6efYz1JYhduCAZQZ-28" target="dvYF6efYz1JYhduCAZQZ-34" edge="1">
                    <mxGeometry relative="1" as="geometry"/>
                </mxCell>
                <mxCell id="dvYF6efYz1JYhduCAZQZ-28" value="&lt;p style=&quot;line-height: 0%;&quot;&gt;&lt;br&gt;&lt;/p&gt;" style="shape=datastore;whiteSpace=wrap;html=1;strokeWidth=3;" parent="dvYF6efYz1JYhduCAZQZ-15" vertex="1">
                    <mxGeometry x="940" y="338" width="173" height="162" as="geometry"/>
                </mxCell>
                <mxCell id="dvYF6efYz1JYhduCAZQZ-30" value="&lt;font style=&quot;font-size: 18px;&quot;&gt;Camada Silver&amp;nbsp;&lt;br&gt;Dados Tratados e validados&lt;br&gt;&lt;/font&gt;" style="text;html=1;strokeColor=none;fillColor=none;align=center;verticalAlign=middle;whiteSpace=wrap;rounded=0;fontSize=16;" parent="dvYF6efYz1JYhduCAZQZ-15" vertex="1">
                    <mxGeometry x="950" y="508" width="160" height="80" as="geometry"/>
                </mxCell>
                <mxCell id="dvYF6efYz1JYhduCAZQZ-34" value="&lt;font style=&quot;font-size: 18px;&quot;&gt;Cruzamento de dados da camada silver por assunto Gold&lt;/font&gt;" style="rounded=1;whiteSpace=wrap;html=1;strokeWidth=3;" parent="dvYF6efYz1JYhduCAZQZ-15" vertex="1">
                    <mxGeometry x="1230" y="353" width="190" height="132" as="geometry"/>
                </mxCell>
                <mxCell id="dvYF6efYz1JYhduCAZQZ-35" value="&lt;p style=&quot;line-height: 0%;&quot;&gt;&lt;br&gt;&lt;/p&gt;" style="shape=datastore;whiteSpace=wrap;html=1;strokeWidth=3;" parent="dvYF6efYz1JYhduCAZQZ-15" vertex="1">
                    <mxGeometry x="1530" y="338" width="173" height="162" as="geometry"/>
                </mxCell>
                <mxCell id="dvYF6efYz1JYhduCAZQZ-33" style="edgeStyle=none;jumpSize=18;html=1;dashed=1;strokeWidth=2;fontSize=18;endArrow=open;endFill=0;startSize=22;endSize=30;sourcePerimeterSpacing=1;targetPerimeterSpacing=0;" parent="dvYF6efYz1JYhduCAZQZ-15" source="dvYF6efYz1JYhduCAZQZ-34" target="dvYF6efYz1JYhduCAZQZ-35" edge="1">
                    <mxGeometry relative="1" as="geometry"/>
                </mxCell>
                <mxCell id="dvYF6efYz1JYhduCAZQZ-36" value="&lt;font style=&quot;font-size: 18px;&quot;&gt;Camada Gold&lt;br&gt;Dados prontos para serem consumidos por diversas aplicações e dataviz&lt;br&gt;&lt;/font&gt;" style="text;html=1;strokeColor=none;fillColor=none;align=center;verticalAlign=middle;whiteSpace=wrap;rounded=0;fontSize=16;" parent="dvYF6efYz1JYhduCAZQZ-15" vertex="1">
                    <mxGeometry x="1540" y="508" width="160" height="162" as="geometry"/>
                </mxCell>
                <mxCell id="dvYF6efYz1JYhduCAZQZ-23" style="edgeStyle=none;jumpSize=18;html=1;dashed=1;strokeWidth=2;fontSize=18;endArrow=open;endFill=0;startSize=22;endSize=30;sourcePerimeterSpacing=1;targetPerimeterSpacing=0;" parent="1" source="dvYF6efYz1JYhduCAZQZ-7" target="dvYF6efYz1JYhduCAZQZ-19" edge="1">
                    <mxGeometry relative="1" as="geometry"/>
                </mxCell>
            </root>
        </mxGraphModel>
    </diagram>
    <diagram id="mBf9uytEZE8F77ZGx7y8" name="On Premise">
        <mxGraphModel dx="863" dy="993" grid="0" gridSize="10" guides="1" tooltips="1" connect="1" arrows="1" fold="1" page="1" pageScale="1" pageWidth="827" pageHeight="1169" background="#ffffff" math="0" shadow="0">
            <root>
                <mxCell id="0"/>
                <mxCell id="1" parent="0"/>
                <mxCell id="GAXHbb7aLfkMUTttqBqI-279" value="" style="rounded=1;whiteSpace=wrap;html=1;absoluteArcSize=1;arcSize=14;strokeWidth=1;dashed=1;" parent="1" vertex="1">
                    <mxGeometry x="535" y="80" width="598" height="1022" as="geometry"/>
                </mxCell>
                <mxCell id="10" value="Datalake" style="swimlane;whiteSpace=wrap;html=1;fontSize=15;fontColor=#999999;fontFamily=Anton;fontSource=https%3A%2F%2Ffonts.googleapis.com%2Fcss%3Ffamily%3DAnton;fontStyle=0;fillColor=none;swimlaneLine=1;dashed=1;rounded=1;arcSize=17;" parent="1" vertex="1">
                    <mxGeometry x="703" y="133" width="400" height="911" as="geometry">
                        <mxRectangle x="726" y="139" width="77" height="26" as="alternateBounds"/>
                    </mxGeometry>
                </mxCell>
                <mxCell id="186" value="Bronze" style="swimlane;whiteSpace=wrap;html=1;fontSize=15;fontColor=#999999;fontFamily=Anton;fontSource=https%3A%2F%2Ffonts.googleapis.com%2Fcss%3Ffamily%3DAnton;fontStyle=0;gradientColor=none;fillColor=default;swimlaneLine=1;rounded=1;shadow=0;" parent="10" vertex="1">
                    <mxGeometry x="102" y="107" width="167" height="213" as="geometry"/>
                </mxCell>
                <mxCell id="GAXHbb7aLfkMUTttqBqI-292" value="" style="sketch=0;shadow=0;dashed=0;html=1;strokeColor=none;labelPosition=center;verticalLabelPosition=bottom;verticalAlign=top;outlineConnect=0;align=center;shape=mxgraph.office.databases.database_mini_2;fillColor=#a9590a;" parent="186" vertex="1">
                    <mxGeometry x="23" y="35" width="114" height="167" as="geometry"/>
                </mxCell>
                <mxCell id="199" value="Silver" style="swimlane;whiteSpace=wrap;html=1;fontSize=15;fontColor=#999999;fontFamily=Anton;fontSource=https%3A%2F%2Ffonts.googleapis.com%2Fcss%3Ffamily%3DAnton;fontStyle=0;rounded=1;swimlaneLine=1;" parent="10" vertex="1">
                    <mxGeometry x="102" y="387" width="167" height="213" as="geometry"/>
                </mxCell>
                <mxCell id="GAXHbb7aLfkMUTttqBqI-291" value="" style="sketch=0;shadow=0;dashed=0;html=1;strokeColor=none;labelPosition=center;verticalLabelPosition=bottom;verticalAlign=top;outlineConnect=0;align=center;shape=mxgraph.office.databases.database_mini_2;fillColor=#d6d7ea;" parent="199" vertex="1">
                    <mxGeometry x="23" y="39" width="114" height="167" as="geometry"/>
                </mxCell>
                <mxCell id="209" value="Gold" style="swimlane;whiteSpace=wrap;html=1;fontSize=15;fontColor=#999999;startSize=23;fontFamily=Anton;fontSource=https%3A%2F%2Ffonts.googleapis.com%2Fcss%3Ffamily%3DAnton;fontStyle=0;rounded=1;swimlaneLine=1;" parent="10" vertex="1">
                    <mxGeometry x="102" y="668" width="167" height="213" as="geometry"/>
                </mxCell>
                <mxCell id="GAXHbb7aLfkMUTttqBqI-293" value="" style="sketch=0;shadow=0;dashed=0;html=1;strokeColor=none;labelPosition=center;verticalLabelPosition=bottom;verticalAlign=top;outlineConnect=0;align=center;shape=mxgraph.office.databases.database_mini_2;fillColor=#eed111;" parent="209" vertex="1">
                    <mxGeometry x="26.5" y="35" width="114" height="167" as="geometry"/>
                </mxCell>
                <mxCell id="GAXHbb7aLfkMUTttqBqI-277" value="" style="sketch=0;outlineConnect=0;fontColor=#232F3E;gradientColor=none;fillColor=#7AA116;strokeColor=none;dashed=0;verticalLabelPosition=bottom;verticalAlign=top;align=center;html=1;fontSize=12;fontStyle=0;aspect=fixed;pointerEvents=1;shape=mxgraph.aws4.file_system;" parent="10" vertex="1">
                    <mxGeometry y="25" width="78" height="73" as="geometry"/>
                </mxCell>
                <mxCell id="34" value="Zona de Consumo" style="swimlane;whiteSpace=wrap;html=1;fontSize=12;startSize=23;fontColor=#999999;fontFamily=Anton;fontSource=https%3A%2F%2Ffonts.googleapis.com%2Fcss%3Ffamily%3DAnton;fontStyle=0;dashed=1;rounded=1;swimlaneLine=1;" parent="1" vertex="1">
                    <mxGeometry x="1173" y="80" width="462" height="1014" as="geometry"/>
                </mxCell>
                <mxCell id="35" style="edgeStyle=none;html=1;exitX=0.5;exitY=0;exitDx=0;exitDy=0;entryX=0;entryY=0.5;entryDx=0;entryDy=0;fontSize=10;fontColor=#999999;fontFamily=Anton;fontSource=https%3A%2F%2Ffonts.googleapis.com%2Fcss%3Ffamily%3DAnton;fontStyle=0" parent="34" source="39" edge="1">
                    <mxGeometry relative="1" as="geometry">
                        <Array as="points">
                            <mxPoint x="106" y="398"/>
                        </Array>
                        <mxPoint x="270" y="399.5" as="targetPoint"/>
                    </mxGeometry>
                </mxCell>
                <mxCell id="37" style="edgeStyle=none;html=1;exitX=0.5;exitY=1;exitDx=0;exitDy=0;entryX=-0.009;entryY=0.591;entryDx=0;entryDy=0;entryPerimeter=0;fontSize=10;fontColor=#999999;fontFamily=Anton;fontSource=https%3A%2F%2Ffonts.googleapis.com%2Fcss%3Ffamily%3DAnton;fontStyle=0" parent="34" source="39" edge="1">
                    <mxGeometry relative="1" as="geometry">
                        <Array as="points">
                            <mxPoint x="110" y="771"/>
                        </Array>
                        <mxPoint x="276.99000000000024" y="769.5160000000001" as="targetPoint"/>
                    </mxGeometry>
                </mxCell>
                <mxCell id="39" value="Consumer" style="swimlane;whiteSpace=wrap;html=1;rounded=1;shadow=0;glass=0;sketch=0;fontColor=#999999;fontSize=15;fontFamily=Anton;fontSource=https%3A%2F%2Ffonts.googleapis.com%2Fcss%3Ffamily%3DAnton;fontStyle=0" parent="34" vertex="1">
                    <mxGeometry x="33" y="499.5" width="147" height="163" as="geometry"/>
                </mxCell>
                <mxCell id="GAXHbb7aLfkMUTttqBqI-287" value="" style="sketch=0;outlineConnect=0;fontColor=#232F3E;gradientColor=none;fillColor=#7AA116;strokeColor=none;dashed=0;verticalLabelPosition=bottom;verticalAlign=top;align=center;html=1;fontSize=12;fontStyle=0;aspect=fixed;pointerEvents=1;shape=mxgraph.aws4.file_system;" parent="39" vertex="1">
                    <mxGeometry x="34.5" y="53.5" width="78" height="73" as="geometry"/>
                </mxCell>
                <mxCell id="GAXHbb7aLfkMUTttqBqI-262" value="" style="verticalLabelPosition=bottom;html=1;verticalAlign=top;align=center;strokeColor=none;fillColor=#00BEF2;shape=mxgraph.azure.sql_database;" parent="34" vertex="1">
                    <mxGeometry x="276" y="296.5" width="155" height="203" as="geometry"/>
                </mxCell>
                <mxCell id="GAXHbb7aLfkMUTttqBqI-265" value="" style="sketch=0;outlineConnect=0;fontColor=#232F3E;gradientColor=none;fillColor=#C925D1;strokeColor=none;dashed=0;verticalLabelPosition=bottom;verticalAlign=top;align=center;html=1;fontSize=12;fontStyle=0;aspect=fixed;pointerEvents=1;shape=mxgraph.aws4.attributes;" parent="34" vertex="1">
                    <mxGeometry x="269.5" y="671" width="168" height="168" as="geometry"/>
                </mxCell>
                <mxCell id="49" value="&lt;font style=&quot;font-size: 30px;&quot;&gt;Arquitetura - Pipeline&lt;/font&gt;" style="rounded=1;arcSize=9;fillColor=none;align=center;spacingLeft=5;strokeColor=#DEE1E6;html=1;strokeWidth=2;fontSize=12;fontColor=#999999;fontFamily=Anton;fontSource=https%3A%2F%2Ffonts.googleapis.com%2Fcss%3Ffamily%3DAnton;fontStyle=0" parent="1" vertex="1">
                    <mxGeometry x="681" y="20" width="290" height="40" as="geometry"/>
                </mxCell>
                <mxCell id="79" value="Transient" style="swimlane;whiteSpace=wrap;html=1;fontSize=15;fontColor=#999999;fontFamily=Anton;fontSource=https%3A%2F%2Ffonts.googleapis.com%2Fcss%3Ffamily%3DAnton;fontStyle=0;dashed=1;" parent="1" vertex="1">
                    <mxGeometry x="339" y="80" width="167" height="309" as="geometry"/>
                </mxCell>
                <mxCell id="GAXHbb7aLfkMUTttqBqI-268" value="" style="sketch=0;pointerEvents=1;shadow=0;dashed=0;html=1;strokeColor=none;fillColor=#505050;labelPosition=center;verticalLabelPosition=bottom;verticalAlign=top;outlineConnect=0;align=center;shape=mxgraph.office.servers.file_server;" parent="79" vertex="1">
                    <mxGeometry x="24" y="43.00000000000001" width="45" height="56" as="geometry"/>
                </mxCell>
                <mxCell id="GAXHbb7aLfkMUTttqBqI-269" value="" style="sketch=0;pointerEvents=1;shadow=0;dashed=0;html=1;strokeColor=none;fillColor=#505050;labelPosition=center;verticalLabelPosition=bottom;verticalAlign=top;outlineConnect=0;align=center;shape=mxgraph.office.servers.file_server;" parent="79" vertex="1">
                    <mxGeometry x="98" y="43.00000000000001" width="45" height="56" as="geometry"/>
                </mxCell>
                <mxCell id="GAXHbb7aLfkMUTttqBqI-270" value="" style="sketch=0;pointerEvents=1;shadow=0;dashed=0;html=1;strokeColor=none;fillColor=#505050;labelPosition=center;verticalLabelPosition=bottom;verticalAlign=top;outlineConnect=0;align=center;shape=mxgraph.office.servers.file_server;" parent="79" vertex="1">
                    <mxGeometry x="24" y="120" width="45" height="56" as="geometry"/>
                </mxCell>
                <mxCell id="GAXHbb7aLfkMUTttqBqI-271" value="" style="sketch=0;pointerEvents=1;shadow=0;dashed=0;html=1;strokeColor=none;fillColor=#505050;labelPosition=center;verticalLabelPosition=bottom;verticalAlign=top;outlineConnect=0;align=center;shape=mxgraph.office.servers.file_server;" parent="79" vertex="1">
                    <mxGeometry x="98" y="120" width="45" height="56" as="geometry"/>
                </mxCell>
                <mxCell id="GAXHbb7aLfkMUTttqBqI-272" value="" style="sketch=0;pointerEvents=1;shadow=0;dashed=0;html=1;strokeColor=none;fillColor=#505050;labelPosition=center;verticalLabelPosition=bottom;verticalAlign=top;outlineConnect=0;align=center;shape=mxgraph.office.servers.file_server;" parent="79" vertex="1">
                    <mxGeometry x="24" y="203" width="45" height="56" as="geometry"/>
                </mxCell>
                <mxCell id="GAXHbb7aLfkMUTttqBqI-273" value="" style="sketch=0;pointerEvents=1;shadow=0;dashed=0;html=1;strokeColor=none;fillColor=#505050;labelPosition=center;verticalLabelPosition=bottom;verticalAlign=top;outlineConnect=0;align=center;shape=mxgraph.office.servers.file_server;" parent="79" vertex="1">
                    <mxGeometry x="98" y="203" width="45" height="56" as="geometry"/>
                </mxCell>
                <mxCell id="115" value="&lt;span style=&quot;font-size: 15px;&quot;&gt;Fontes de Dados&lt;/span&gt;" style="swimlane;whiteSpace=wrap;html=1;fontColor=#999999;fontFamily=Anton;fontSource=https%3A%2F%2Ffonts.googleapis.com%2Fcss%3Ffamily%3DAnton;labelBackgroundColor=none;labelBorderColor=none;dashed=1;fontStyle=0;gradientColor=none;fontSize=15;" parent="1" vertex="1">
                    <mxGeometry x="9" y="82" width="310" height="1016" as="geometry">
                        <mxRectangle x="37" y="80" width="132" height="26" as="alternateBounds"/>
                    </mxGeometry>
                </mxCell>
                <mxCell id="GAXHbb7aLfkMUTttqBqI-246" value="&lt;font data-font-src=&quot;https://fonts.googleapis.com/css?family=Anton&quot; face=&quot;Anton&quot; style=&quot;font-size: 15px;&quot;&gt;Query SQL&lt;/font&gt;" style="image;aspect=fixed;perimeter=ellipsePerimeter;html=1;align=center;shadow=0;dashed=0;spacingTop=3;image=img/lib/active_directory/database_server.svg;fontColor=#999999;fontSize=15;" parent="115" vertex="1">
                    <mxGeometry x="95" y="200" width="131.2" height="160" as="geometry"/>
                </mxCell>
                <mxCell id="GAXHbb7aLfkMUTttqBqI-249" value="&lt;span style=&quot;font-family: Anton; font-size: 15px; font-style: normal; font-variant-ligatures: normal; font-variant-caps: normal; font-weight: 400; letter-spacing: normal; orphans: 2; text-align: center; text-indent: 0px; text-transform: none; widows: 2; word-spacing: 0px; -webkit-text-stroke-width: 0px; background-color: rgb(255, 255, 255); text-decoration-thickness: initial; text-decoration-style: initial; text-decoration-color: initial; float: none; display: inline !important;&quot;&gt;Tópicos Kafka&lt;/span&gt;" style="image;aspect=fixed;perimeter=ellipsePerimeter;html=1;align=center;shadow=0;dashed=0;spacingTop=3;image=img/lib/active_directory/documents.svg;fontColor=#999999;fontSize=15;" parent="115" vertex="1">
                    <mxGeometry x="108.56" y="428" width="92.88" height="140.73" as="geometry"/>
                </mxCell>
                <mxCell id="GAXHbb7aLfkMUTttqBqI-250" value="&lt;span style=&quot;font-family: Anton; font-size: 15px; font-style: normal; font-variant-ligatures: normal; font-variant-caps: normal; font-weight: 400; letter-spacing: normal; orphans: 2; text-align: center; text-indent: 0px; text-transform: none; widows: 2; word-spacing: 0px; -webkit-text-stroke-width: 0px; background-color: rgb(255, 255, 255); text-decoration-thickness: initial; text-decoration-style: initial; text-decoration-color: initial; float: none; display: inline !important;&quot;&gt;Dados Batch&lt;/span&gt;" style="image;aspect=fixed;perimeter=ellipsePerimeter;html=1;align=center;shadow=0;dashed=0;spacingTop=3;image=img/lib/active_directory/database_cube.svg;fontColor=#999999;fontSize=15;" parent="115" vertex="1">
                    <mxGeometry x="101.25" y="832" width="112" height="124.44" as="geometry"/>
                </mxCell>
                <mxCell id="GAXHbb7aLfkMUTttqBqI-252" value="&lt;span style=&quot;font-family: Anton; font-size: 15px; font-style: normal; font-variant-ligatures: normal; font-variant-caps: normal; font-weight: 400; letter-spacing: normal; orphans: 2; text-align: center; text-indent: 0px; text-transform: none; widows: 2; word-spacing: 0px; -webkit-text-stroke-width: 0px; background-color: rgb(255, 255, 255); text-decoration-thickness: initial; text-decoration-style: initial; text-decoration-color: initial; float: none; display: inline !important;&quot;&gt;Request API&lt;/span&gt;" style="image;aspect=fixed;html=1;points=[];align=center;fontSize=15;image=img/lib/azure2/app_services/API_Management_Services.svg;fontColor=#999999;" parent="115" vertex="1">
                    <mxGeometry x="103.61999999999999" y="641" width="107.25" height="99" as="geometry"/>
                </mxCell>
                <mxCell id="GAXHbb7aLfkMUTttqBqI-259" value="" style="group;spacingLeft=10;labelBorderColor=none;labelBackgroundColor=none;html=1;fontSize=21;strokeWidth=5;strokeColor=none;perimeterSpacing=16;fillColor=none;rounded=1;" parent="115" vertex="1" connectable="0">
                    <mxGeometry x="22" y="41" width="270.5" height="125.18" as="geometry"/>
                </mxCell>
                <mxCell id="GAXHbb7aLfkMUTttqBqI-258" value="&lt;span style=&quot;color: rgb(153, 153, 153); font-family: Anton; font-size: 11px; font-style: normal; font-variant-ligatures: normal; font-variant-caps: normal; font-weight: 400; letter-spacing: normal; orphans: 2; text-align: center; text-indent: 0px; text-transform: none; widows: 2; word-spacing: 0px; -webkit-text-stroke-width: 0px; background-color: rgb(255, 255, 255); text-decoration-thickness: initial; text-decoration-style: initial; text-decoration-color: initial; float: none; display: inline !important;&quot;&gt;Fontes Externas&lt;br&gt;&lt;/span&gt;&lt;br&gt;&lt;br&gt;&lt;br&gt;&lt;br&gt;&lt;br&gt;&lt;br&gt;" style="rounded=1;whiteSpace=wrap;html=1;" parent="GAXHbb7aLfkMUTttqBqI-259" vertex="1">
                    <mxGeometry width="270.5" height="125.18" as="geometry"/>
                </mxCell>
                <mxCell id="GAXHbb7aLfkMUTttqBqI-240" value="" style="shape=image;verticalLabelPosition=bottom;verticalAlign=top;imageAspect=0;image=https://download.logo.wine/logo/Microsoft_Excel/Microsoft_Excel-Logo.wine.png;fontFamily=Anton;fontSource=https%3A%2F%2Ffonts.googleapis.com%2Fcss%3Ffamily%3DAnton;fontColor=#999999;fontStyle=0" parent="GAXHbb7aLfkMUTttqBqI-259" vertex="1">
                    <mxGeometry x="26" y="26" width="81" height="44.5" as="geometry"/>
                </mxCell>
                <mxCell id="GAXHbb7aLfkMUTttqBqI-239" value="" style="shape=image;verticalLabelPosition=bottom;verticalAlign=top;imageAspect=0;image=https://upload.wikimedia.org/wikipedia/commons/thumb/9/92/Micorsoft_Excel_2016-2019_CSV_Icon.svg/1200px-Micorsoft_Excel_2016-2019_CSV_Icon.svg.png;fontFamily=Anton;fontSource=https%3A%2F%2Ffonts.googleapis.com%2Fcss%3Ffamily%3DAnton;fontColor=#999999;fontStyle=0" parent="GAXHbb7aLfkMUTttqBqI-259" vertex="1">
                    <mxGeometry x="123.25" y="33" width="33.75" height="29.68" as="geometry"/>
                </mxCell>
                <mxCell id="157" value="" style="shape=image;verticalLabelPosition=bottom;verticalAlign=top;imageAspect=0;image=data:image/png,iVBORw0KGgoAAAANSUhEUgAAANcAAADrCAMAAADNG/NRAAABI1BMVEXk6/Mbskv///+lrLTi7fOhqLAaskwas0rn7/fp7O+W0K4Ks0G+5NsAsz7k6vTj6vLQ19/DytL+//zs9Pbj7PBavGUAr0Fcw3f//P/W7dv6///j9OW4v8eu3Lhlx3/G6c8+tlrk6vu93sev2L//+f9QvFkVtkgAqUDV3ORcu2hQul/3//sArjq6wcmutb2j06lOvVe74MCJ0JjKz82ytcK0ubnr8u+krq7d5eTu+vDN3tiEyY35/fTC6MJMslmz3brd+d94xH1Mwl2SyZRZtmvJ475ut3V9y4eT1aiC05pBuWQhrk9bv4Cgzq57vpOJyqNSwG5qwo4nsF3A6Lrf/O6l3anU9+VgyXk4q1vf8OGx5caBzJ4AtzjA7NEAsSDu9uYWo0ePSaF+AAAR3klEQVR4nO2dC1/bSJLA5QZaJIogaUzTbmLsZIw0WJ5k8N0x640TmFvfIFveC3gNR0i45Pt/iqtq+SHrZV6xLc71mxkGW5b6r3p0VXUjayRZmNxaX9c2tXnIpvZvLGVoU0VLYmKEbWkbG3OBQq711+/kA8gSuchWfj6aGsrrtf+Qj88lnm1s5EHmhrX+emXt3x+dy5mbAY7k9crKAzQWz7X1bN5Uimtl7d4+FsfF5PzMbyzIdX+NxXEB1vzNUHH9ARp7NC5nfb6BcCBKX/fWWAzX1kJgDblW1l6ze/hYmAtOsQA2iDLkup/GIvpicsG40MfuDhblOlqdN5EvI33dS2MROxTPFo8LwO7qY1GujQXkurvGIlxbC+Jek1x3zjyiXIsR5cNcAPZArnnzDCXEhT72FLn++ONOPhblWl3EuDHKPMQT5LqLKWaK6w5gmeKClOr1U+Ra8Sfo2+gsa1y3zTwyx3VLsIXlWk/iArAMc20mc2FKNdXFFpUrRV+3MsXF5fotmeuPtdfTwBaX69VaMtd0H1tYLu1Vsr5WVK6YUa6Xyfq6hY8tLtdmKtY0H1tcLu1dOhhoLKVoWWCulMAx3ccWmOvXKVipPrbAXOu/TVNYSrhfYK5pkcM3xYT22yJzrU8J9b7GsseVmnMENJY5rlvExCQfW3Au7eXK9OAR52OLzqVtvppKFhfuF54LyF7+9m5tLQ0uBiwDXCibv75Mk1d/yyhXquRXN9afJpe25MqQLLmyJUuubMmSK1uy5MqWLLmyJUuubMmjcG2mFng/S1I32T0G1+brtXnIuzSwx+C6RavyZ8jayyfK9eonc23OievXn8ylvZy23PZTJE1djxXnN2cv6QNazl/ZkiVXtmTJlS1ZcmVLllzZkiVXmqzPXmbBNZ98/mUa27L+SlHXfLhWXqUoLMNcP78P8O5p9qO0zZevZi8/v3+4iLLkypYsubIlS65syZIrW3I7LjhsNVts+aM3G1O5jlazyKWFd5o/BS7taGMrnYuRxt+ncaXvjJ7HuvmGtvqikcIlpGD1f27kU5W1iOvmb/K/fGiKRC5GxMdPxXSuXxdx3fxN/u3vx5OPeQhySXJy8HvxzVHa0w9v8YcwP0VS62XkOjhJ0Bdoq/lndf/4TSb1dfCffzXiuASRQr6vbld/mfJcrJcr8/Cv9HVz4Krub/+DxXDhk34+HlS396dxzWPdfMqAkGu7Wv10CJEvxr9OWtXqwf4v07qriyfItb+9vV09ESzCJZwPVXgvs1wHBwfVP5tk+GSOsb7ef9rOMBfqZLv6j9Fzs0Zcper+Qca5qtXyfxHh2+KQ63tLEWea66B60DqRAS5WaX7wsbLNBWSnDT8mav7kdXGwnX0uJe99F/PtsHS2/US4qtulcdzY/XO7OuJalOdw3l4CXAcHv/+163Mxxurb1aEd/v6LX39lSrSNw5EdbldPpWgKrVkhxU/7T4hru/oePExzROFgf3/08lPgqpYE08juX1WIkGP/Ws/PYcX/gfImyHWwf3AE/vWBfioH5PR55uTz8+en5Qn5wLQi55Y+FrPGzcyJYZtBhpzBi1rZzHm5sVCqBw/JguQsS89NiGV5GvXCHDRjkqO5CIGu5Z6eINoT5cotubIjT5ULZcmVLbkHl47zINWDcyFGVpwcPerRwe9JH4Z3YMqBfykmAFZkTg0cmbOoOjYiOGvpyddAuQcXToV6LsyFWYsaJtXTrjmc+Ac/veGdiIoHB8HF4k6En9TjkYdydy7dUHd64no4SsM0ua7zYbqZ9Gkl3KhxGDLnhpGoL8viHlwoVl+6ZXDLsFJGeWcunbqlmz/tCBf3/iqWCpeF63bH4Olc3+hO+7hUKFzeFOstWks41CgXLw97VhyXZ9F2qdR+VDvkRSJEo2WMr6eDKZnl57uSCNXbarzt2tFLKsPTdc/inX8WHCIlHCoEcU7cjq2MN3y0V4IDTtCPI2jU/G9HVJzPHA58HC6w7AK2RS7MseGD9/PuybDjD3SyeeEZoQv6+WhONz33yGFkuO4hhWBN17Nzuhc++qxJJCNFrj4X5rrGM5QMPdb97sXlqXbPRW10Rpoz7LpTcUaNfkEEO+nFcEFc4eeXjJGJpWApK7tdbkxoBe16h8ENkqTLozZNjRKeosD1R9SX4iryMZfOv5KxBlT/WJJCyKmVvkzuMhl6qB/DzzLXtmK48P1GKPSqt03VJCxA5HgsrtyAqzacp3Rq7DSlA74inS+lw1IDPQcor2sTcRgcyNONYwFm6gA2aRTeHh4W1NIpw7WdYxPCwQgAz4v6wrdvbMsLj8LwubiVGOvvz0UH1zfoiaxIwpqHLd0wuFff9d1sz5pUGcTmopBCAnfzeI9aOC/Qs4umAEsUjjisfRt7S5CLtHk4oM+Ey2xXpCPJ91MwM9SL2VORRfR/BIdDqWW7zBFMVtjHq6FjUG72rsHeEMGtjfUywdXo8Hlw2RDgScU5NyFDQLO0TK8ArzTF3oQdUt4FpUqHNCBIWFTlT5iOmbVuH2jBFrvj+xDkapLSPLj4Hm4lIP/igyRDuTxBH3prBvIOavX6uOlAHvXM4PnQkM++KydreLo3PonPpaKK/Mwns5KZcLk4CzldKzAkDmFYkn4twGXxC9CWqPQ7PBT4wJJbDbUu/J7rYS6wZ5gW+i1LDxr1LLhqx8i1mwtyfXNxNwgJ5r9GC31LNLqmEeUyzhsI0WiZIS64OXg3yMmEr86Gq4QTUqEWvNXmOZqPKA+54D/GYQVsU7gmBJAwl0drx3AfmIRgP/jAgKvZ/LwLwUaSC4MGEH46F0jtRkBAi3BBiGNjLqp3GhXg/+IFVBhks/vgkLJRHoT0sb52PsDdgHSya9BA5jYDLl5EX9r1AnaYM3uXFUFK9uAlUBF/jomjaJsJXOZXRppMfB1MACMu8T/8GiY9Ind7pj6CmAlXHfctNlpB/7KM1nWpeGWNuAxP7TYreFZMKa37ChOMCThAH84fyMXIntnrC8w5r21rplz6jsQsAuL8oAZEh8Gy2TJyQ66ccdXErPDCpglcnlnE0UP9E+bS+TnkjzDBnRvjaXsW8zLHJE983wlUJvpABr9CzdXGHNZpTUTrCaE7g5wpzGVRqPhwz2S/N5rEZpMfQlCH4AcT06gwD3GB6or4od1yShntqRzY9euEAJehgxFXwNNIyZwpl2WrEVUa7R8256paCnPpNZUyliaLkYnzUss/xPKsSS6Yka2dBv6vqNuz4lJSO8cNz/DPSdGt13c82+R+S2rM5aMXw0V04LyecYiHfKFhfVnwAn+PliibLe55GDBnwkVzdlHIUQ0smtddT5/otVHLczBsuGZi2a5THDvk7p7KcYNc6t1LiYX1JbZBlO3PggvUcc0qg3pZYDem0DJVbj88gnuqnP5qeklxw6LgpshVjuWyWk2VKxZN/4bNggsKYSitHDkofUFgOvvK9ShXO5lLH3OF7VDdOrOOJ2CQdugP55r0/kQulU90S74pMgR0hONCNTKal3UPS39ST7ZDyzMHXJE4r05g2R+hdGMSQir2k2fBhQJgdMe9bDSarIJZHfj4KRSPIy5bmZFrJF7KoubAv1TDLcSFL/T6mDhj3y03Oy5AMAxu03Jnp11iAivNRtkcJblQU+OHDnlynM8Zb1U81OP0hascWCM0oS7fs2dkhz4XVWsjFucG/QoGg3d2lEdhoanGkUvm0o1LDAwFc6JOGcYNlddg1JVst/cgLh1DtQUuQid8ImZeHtOrTQdw0W4Dq0pZHvmXZWP2B85jJcUN79uVowIej+NCoQZVlli5tkG5D+HSTdO2uTWxjhPDRdXq0Dj4AYUKAaQ+jIlUh6QfY0q49RbkOlefOU/mgvvlCIhLUOw8kMtzL09cz5qiL9Mue9QaWRiFX3qqKimNYj28gvMyu45Zjxh8it8ojXb0SL4xul9mzWWqP9x5mB3yUyYqmMikc3k3RJZ6Y0WA6aIrCCGHfRtI/vgX5Gp8il3Owg+V1Qz3xdC9BC60C3qCLSr2pWY+iOujhFMfmoHMAU8/WHcYXh8qYSbl8bdgrxnMDoN9oOjnLriPQ56blqeHu4EwvXm1Q+zPsDbX9QQu7HyYZ0equf/8f2/uz2XxAs7wBT5RClpeiEv1N2SpFryAcY6NbFIec+m97xhKmleQCEV9zDJbDdz2/r2np3FBSFJ1HHE6D9JXCbsvTTsY63VLxS1IYUdch9i32bUnuNphrpxxQbAfV/oBMTZ0KYg0Hl5KMpdP4bL9CaNyiR3le3O5EjIicsYDKzW6cYqOQqAoH9qhi30byBOGfQFI8PmF4go2n8xOA9sF5HlkzQo+yN9D2ciYr64ULmrRToP4a0v3n5f5ngTPEdfcyg3KKfhB8c6yxpUxom/jYoqsm96gdIIftABWxfpBTWNZzfzoj0urelBqdYn9eVIftUzjuPyXja9NOSyJ7smle1+wi+x0DcvflwDy7bPAjidUvt4wHpaxbykLnmVRv0lj8a/Y8hNFI8Dlqea2MmHbCEJBjuJi8CTiho8WVJK5dH4tnIdxUQOLAyn6LT4chH3eqGDcgulzFOchcEicm6i/lIqLzb6tnFkBLqqbrT66GBhAzzaG9wlmgF4RizcpLnuGPl1futH7zh7IZXl9MHtZ6Xch7bByhmmfYkoN6qLw5qgJeu6g54jDXs3ilm7Yp8AOue/NqAWMgrPauWpTOOJ73cMTYprCc+1d4mBzvrlj0lFISeDyFbYzXPS9d97LVbyWovlxr0PpmVtw1CJrQ1V3o6Psj4Lhak7f3aG0vPfRwayXOK3wPJUzTtVQQZf969MziDSdvYs+IyqeNM+DlWgSl3rLfv8wLkoN+4JUlO0I1mw6lYrCgjoqyEVNegRvgHkKtVQMR4GOSds2wtfUTcjw0AIECHOaTchnhDJ10dgzc7fkAv+9FOS+cV6NWLd+/AtX5VEbUA07ymEdSBmDKQjkhq2+qLAmUy14dScFLvBHt13krM4Jrpsz6SjNS/jJoKoiJ63B5ukoV7gWRRc7U2Xq/e0QWzIu3Ht0F7gIZItMND77jfLxJAQZaadfAXOS2NzAW1BxXDunR64JE4DpuY5ahqzgHRBowI5wip5JJ+ohdKM9B3QaZ4eU1lQrlpzw6DVuw5VT0e28D9eXSkBZpZYZPgTj5A+3gdYlcXeGIJddnpC4U5NfXbDRCdEMKqWuHYycw3P6E3knyqXjHiOcSN7WkqimckF4Nrx2QXWbKuT7YbdmRrwGw/W32llx17dBedL2eOIuNbxT5XbpyPd86RRwe1RkB5yKexeQxEUrG3U5o3dERL+bsvFrWp8Ntz9yu/Oh7rrtHcpNS49sEsHJFYou+0er7dbd86sfmKAknc/DtIRz2m27rls/7dgcm8Dh5T7/nN36nmfEXQ7+0/lav0puA023Q9y9qFsGCFc7sLxI2qoOo6pq5nicofZNJp5QV10YbPPg7kPsLiUdDjeUx+8/xFBt8MQ9RLfgGg8ndddpIC+65cmmH3rLkyXIkitjXFaKM2RU8IZoNLodM+uCmtauUoJyRgUnbq3NnyCX1dVubJhp9cHvt3b9hZPg2D3Kj7VK3cSd/DT3dLj0b1dMk6w9ahA+DS5qeJdEg2S1WLY5z42bRLn7/PXmHCXIhX9J0rocPM+hcQ11/oBJ5yobzJoMqejVhxssf/3nilRIY7fgy4sXpReZk7+/wKGXSqXClyZuSRhwqd0Vg2bI+puNZ1mTfH5r0HrDldLgc2CGVKS5tbGqbWRO/h8/N3XJtSiy5MqWLLmyJUuubMmSK1uy5MqWLLmyJUuubMmSK1vyZLny2rMlV3YEuLamc20+Va60r61YTFndnM4ls8eVX90U07m0DHKthrFiuNanfU3E4slqfioXgGXuwd+r+Yh7RbkIezbvcd5VVqMQMfqCyDHvgd5RotEwVl/kaHUjQ3PYajTZiOUixMlrGeLSNBnDEMfFZD4zX4YA2oqxwnguwo6yExM3I19Bl8xFiNjQVsHL8ov5XXvDQcGPmBCfxkXks01AW2wuGF40gZrCxcjWRt4/w8Jy5f+2lYSVyEXUV3RubCws1+ZmgmdN5cI/39g6yi9gGpzP558dxUX3sfwfMQg9iIuAGHAAAAAASUVORK5CYII=;fontFamily=Anton;fontSource=https%3A%2F%2Ffonts.googleapis.com%2Fcss%3Ffamily%3DAnton;fontColor=#999999;fontStyle=0" parent="GAXHbb7aLfkMUTttqBqI-259" vertex="1">
                    <mxGeometry x="193" y="32" width="36" height="30.68" as="geometry"/>
                </mxCell>
                <mxCell id="158" value="" style="shape=image;verticalLabelPosition=bottom;verticalAlign=top;imageAspect=0;image=data:image/png,iVBORw0KGgoAAAANSUhEUgAAAPkAAADLCAMAAACbI8UEAAAArlBMVEX///8ArdQ2NjYAq9MArdMyMjLc3Nz//v/V1dU0MjNEQ0M3NTb4+PgwMDApKSk1NTWWlpa/v7+rq6uoqKiNjY16enplZWXk5OQ+PD1RUVEAqdPGxsa1tbX5/v5LS0uioqPx+/3v7++BgYElJSXo+Ptubm7d9PnOzs7q6upiyeM1u9uX2+yv5PDD7fV91Olbx+Gf4O696fMsuNqH1+pdXV3S8vdGwt5nx+McHBxoaGj8lbkSAAAQkklEQVR4nO1di2KquhIVA7WKQG1rVVot1kcVEREf5+7//7GbFxggQehD0LL22ftYgTArM5nMTAKt1SpUqFChQoUKFSpUqFChQoU/jQb8U7OcnetZ9Oe/BGspmUDeTIuW48KASt4BIEkScP+Ywmu1gy9h6vKhaEkuCqjmpSlhgOWwaGkuCEh8KwPKXHaKFueimB4pcUjdtv7SUF+FxCH13R+y97nPMvf/hpNDhj10AQipy3/Jya1lRuUI29pfiOMatSF0bzJj7RI4/pFIzjMlWWZVDsCqaJkugrktRXnDn/x50VJdAm5skCOY7h9wcgc5SRzqfVu0XL+OYRCwx5R+vHmlO/EZLdD6rYfvlg8knrnL4Nad3IqvcTSzuUXL9qs4+BJX5dDFAemmw/elUOU3XqPYAhFzFM8Ar2j5fgM4H7E2QuKYvG0VLOXvoNGo7VKJw0l9V7SQvwGo9KkvmMsJoLnf6Mw2dLnRW8TeN0UL+fOAKl/7Z4wdUV8XLegvYJiB+G3WKByTG8LEB/vt1SjmfgbeiPrNOTlePYJH3Lyt8L1RO0jZmN9cjUJQj+BSv60ahZOZtyyZ3g3V3i07K3NUfbdvyMntMts6Jn87Tm6eJYhhLf5mahTCeoQA5tIqWuSfwVpQjwCC72XpJvZRNGrTI3+UA3m34g4DmK7aVx++oy1/gnIrQMUnh3cMABncQo0CuTcuv42FIhyu0sEN7KNo1FA9gru2gFPxAy+RwYXYoiX/NtbcRRU4lOnqKSeTQYvr1x++D4/cUQ7CktvUFriBa69RcF2YhINzCo9L/OprFHO+RgE4WsEpoiL8lRdid9BP80a5xIQqa4lzCjKL6w3fG7WDaLE8soQmKNdcs5Pjz9YkJWFScH6JDoYzm6vdEesIqq1gFWXk8cJbGL1f7RLjlD+jJaNyS3Ciea3hu2ABEYDoZk92t3tM61dao+AGpnivZ6zE2EAOgT/7kfD9yga70L3Fk5EGJDbnTX6o+r5BvXRlzLf8CjvgTNPoSSZuL8Emrq9GAeNx/lYg34qdiTWa2RuWHx43J4d/BTOVYwqor67M2nnRiQzdmInqEVxs+Hn81dUouPsjYKZurkUqXAu2yoHr2gYtcG+pE/SOq/RodlNq4Ed0NoA/S6VlnpYvmNRPGW35wXVvaEZLDcQdrqHAHkQ1iuvwcsIZzU4dstZR4N+vZolx+NWEm/u4g4RWmy4j+Ldx4KycIE7nt/TyAl5UiZXX12DtjaFwNSk9HGvQRVcOeyCMAkoFhz8tn085IfWVaKH9GmoUAvcmZyqgDwXVd9O/gvB9xy2l4kd0zoxVdNiReZM6/LL8S4xzYTyS6XK0LTjZcSBYhisx4Iwmc31UVsnngkK1uSm5exc9jmbusgrOrd6hVclyh++iKirI7qH4S4ylf1QbB+y8taIcs9KW0wQOhDKbzWWBhRJt/xLXI3iAdsPzkuVdYmykbP/K5Zj55Wo4tZX0gTb0vAbf1PMuGKCMh/+o9tmQoCAIVsKh7S6nVh6Rpz63OCOfyXKLg2j3A+TuH3dODte8EjVUzvB9mra7FQDgH71DxhUTZD3cgAg5ufIZfPqGZkjEBP7Sy6b5tWj9uYw1inOPo6H9gEjz7jzLYBUtMZYxfBdEbyedU9lNf5lBetGjTvkig4tgm3knNxzCGbh7/Fy3bDUKtKFZJClXc7J7zlVZoh2CiRXJgrHjF9C4GpfwHsiVld6icJMNep1cefz7PIU2tzYlA7BJN3nxzoMyObm0B6xBwD1GRAbyKtXL4/SH021mturOZbCVzwxyQN4eEmMPNqnZl+gVBWZ5dggKNjRjzeKEk7zUFkhMcRL3FbDFlou9JndhskQ1Co9fNQQIsuz7NvyDIKMvAr3jGgaQvRSLdwSpX2kKsWw9gg5pSBBSProrZ7s+zKcYh8PW2S1tn9SVAd5CgR7jEVMfCpK/0tQo3EikiVj7m523nlu8k4fTtefaKIhHeSc6PeXhtIMvWLVwh2WY1w5IfXgIyzgwX67WUwsfacTEC34eWgdv6ZNBDP8uxcNW5ORKsQ0a1yOIBwP2f5D16VAjGnI0Ih/mjutTzyeOxfmFWBmvxBeudRxryZIp+UsnkoaJJQtUP1/ZyOPLKe/KEuy+KEWNAi1/Atl211biUJR73PYRhtuNDLM3scMabvg1OakEm8XQPoGlM03s4sUPKEZ2NHONwNouj6JBiy7YcmszyMn9jPjfwXRLu5+n06GFMQw6Jn7O+cHqct/GAn1qScL3pEqtg+Pt3OUGw4Uz+1pon6n0RasXpdxHYUG/ffRlEwIQ4I+yvVmtWSfIG/lJePzleFSjKNy9E5w8Np6rE7kZidxtOAPka1e0DVpC26DLw33u2VDBAn9MQlYTHFeZqpABRFtJy/JAG+r9g+vL0ZQsARl7J9/NMSmlPR1RAp030NxM358g04GYQt+Uj46VtW3eBjt8i3K8dGftpr7xLyE1kDfbrBW1nSl4NARHAsXqfe5KZq6Xxkgy9PvHbbblJuso6D3o5Aq29zV6SVCOsjMRHPqDs9VnAu5iJUg+7XhpWC5J1nLyRiCV97MQOTlJLtTJzfO+KSfaA7aXweRFb1krcImxUdv6IJdvSwgPuZ8vKYoe9Sxws5iDXqGRd4jHqEPu52xeuK5c1Mw2XIGgtPxloLgWjndOgh+iIWQuFfV7PXj7OuKxKwj/ETJHJ8gbQVBLf22PiPnlH/CBAg3PLSTKhHO20QAVf1xtp1b0HjWU+3kp78Iu5J1qO+6rMQhbWpREL4HK+NpPlM7AVHa5cg6hxxtO185u46d0byE+bsd7IxQghNHaim/bdrC0ktUH4s7y/eNxiXA8kqvFl8tSASsuXnDviNymLNsb1wsWVw6HNVlakQSPZLEXk7ZkGQQFjeAVcmnT5uWZRx+sw4UHtKDkrafDpKMaTrfuUWbX1H4I4PIF6GjqiAsOLjNAObDWK/u85nNCvvDTDg38XqSABCqZb7yDdf466+DanErVd3DpZ/Mt8tJebOOmvCS7GxFS4290cOodf5L4xWtSO4CfHURj+7jKOaEOt8vk/okvgMyfF1Y5LQqiLY0o6MydKK5dwSNOeclf+tet4pefQdHt1Zc7fP4j3C/+e2Zd/LzFJs/G7STmO9uEY+YbaR4w7Qv/7kkHDe/l1vrOTbGzW9lf03uY41x618gRevOf2bQAHT3g73pL1TX510/fT/cb8JbbH7un5R1lAPLZPMkAN4eiC87fAF5StJxN3moWtJMf7Px84v5ca3h1ZpmHe7BIcb0aZ3HY4aiW//RKSBnZuQn8HYrURZswrg9T5yjTdEawSYKGjF6uhdjrAFQ89XZyXNnkrVP+Mm+kfA0gv3tu6yLy0WQOQAuHhm4vPbSt8kZMnANr7uz+Q0UoiRZmJN8/urstfzPprWE4nR+2jrPa7TzHORzm1u2N7Oy4XSPnoxH7/82D7qCMfVOhQoUKFSpUOI/23f0Jd4vIofskxujAgpzc5rYRIDja7t1B9No1EcjFPdHhxV2v14sKVhtHbwHv0EMnpcmcxGddCVEfvTx3TiJ2+koc+jtqvauhz637sI3kiYrySg8+jxAGbyJm4wFqTdsv+Id7e3R5axbpmWddUQyl3iE/vQ3wLUZ92ERHS8r8yG+5o6n1EIqmTwaPAfcnrR6H/oyYvyjos/EatqEkTqxrlOr9RDEgtJGg52u9voHuPBAo/WGiYvGf2S+7uqrWVY1Q6tQ1eIOm0kSnPOpJmR9EzGMnNrVnKuRTU8ScXHNiboiZP1BR9I6QuZrCfLEnQigtdrhA5vW62sTMFyPU72pd7465zFUxczV6IhTyZfxt5ipl3htQe9D+CZSezvwpEG/CDheG+XiGuKqqNsDtf4M5akX/aOdjLrb2p+CQ0f/8AvP2vknF02ZMzzHMH4iQzRZpnsNcS2du6AiagZVe154Y5k39hP898Ji/avigouKmFPzDBFt3exR2itb9AvOOXg8VwwyXE/NAfI0excxVKgOV+T2NudF6f3x8fJj1SZcZrXHInByieLrjMR+/4WNEP8qAnI9V9DoJ+96o8+05jXn7I1AhNGem50LmdwMNd7cWOEDCPJCBQOA7CXOtSxxIb0Z0NHkMmesfCXnizCnetXBABF3SZfynYLylMb9vhR4E6jGcRQPmb+1/GrHRj8D/EeZJmc8yry0IKw05yvzM1Rjz+xYz4BT+lJ3G/IGdeCanngt0/k5MQhuELZNx/hXmcMxi6x/1AubK6PEtwGs7nXlc5x90FBLNKdyQIoX5oqXQgUJ6LjwFM6+rAxwKQAlPzjOw9rjMGZi3R2i0qupn6OEU4r90TdP792eZqwzzRd9Ao9DoEwm1fzwhUpi/TajXwQ7EIH73xLyu4GZD7xYyP8msQ5nvMjKvzTQyhjizGp2Z0pirLPOnCfqirrx94OFoaPEr0pmPyX2U/WeLWN8gKMxR5kQohfUfiVnNqN8nGhYw/8CaU56+zxxJjogPFq91QxUNPzFzGiBBz0gcpaEHd2SZK102RPouc/VHmL+hk1Qk+RgbUp1JcjIwb1O+xl3ttU/6IJCSZX4aA99lPiMmxlq7QVwU1Fsu5qQlQ4MD7Y24Ol44JWR+T73D7NQJQc9FrH3EykGYq6oaTIfZmQdRF+PhaFswOxrd5WB+rxHJX9rtNqEHvXByYhMyf9YDnbZrj8TXBQELyxw2yvgwqnPoElWKUVYP19FJR55mtUHnNQDpvmzMG1RytfXR7XbpzMTJlUXMg1zH2H90P17o59aCZa6Rb7X9Sa2EubaPy3yeeW9PI5n212K4E/MwSzM0CBLSQwNIZGwi5mGuo8DLg8+TR5b5jCSoME8LL84fw81IjPJJiJOckDBPZhoB83jGHWV+qmugcRLaZmJiEzBv7zkJYNBzhLny9omGImxe/xdcnZu50Xp+eHj42PeJuEokY0GHAtyfmBsvzPevcebj0WlmUEPiKuNKI8yNepdp7Q7JxSl3wPM6IXOUsbz1m9TgxwxzOPSfo62JmUORcJRG70aSa+rhDI3J+Nj8nEkFJ/8aMeadiUpZU2C9w//Hxx11fuxdJu/Qm5+mJ3x1oPRZhDm0LOpAuguGeVTm9PxcZRRTT1QmVOrb1UhlgqGlzGI6h1kaJdRUFPif0iTXJCsklDnbnvZe++zTYD2AFoTw9xHm7WeFGhMZr6f5POzxzHU4KOwsWo1iupytQLLQAuZB3P7ZJxf1Hzokceh0yezYjA9olnnQ2nvtmZrVPkw96GyLm2dqMu3nCdHN5Lld+1YF0tCMUwUyIZOIeajzIFfDkkPthYlzbbEnNZt4xtbrJwa09tRrGSQAODnENyKNgXoODQWVtjSeUQbKR07mejMEtCldmYU3e9KaESiGMaHWbkDzZaHN0DjXYQvklDtUBYY/TZhR/aQb6LvQGQXM69GmYBP60/sEfVD0/ckfjv/p6EQFEelODKNp0KrzYqY3cRP/e4chjx4XzRAx/2wxGLw8fDIrDaNWHH280vDRT3yP+vvtdMorPYOdERcv5LtR1NzH++Rd3p7p9WzBtXO61QM5TKfVHm24BfP0TkI02BqfeQ0v/hD0xsJDAXC/jJPfoyvbzCk95nPIkd4lJsCCc5c279ReeKt29GibkS7Z2J2oNFGhQoUKFSpUqFChQrnxfyA/ggZHox1AAAAAAElFTkSuQmCC;fontFamily=Anton;fontSource=https%3A%2F%2Ffonts.googleapis.com%2Fcss%3Ffamily%3DAnton;fontColor=#999999;fontStyle=0" parent="GAXHbb7aLfkMUTttqBqI-259" vertex="1">
                    <mxGeometry x="193" y="68.68" width="40" height="40" as="geometry"/>
                </mxCell>
                <mxCell id="154" value="" style="shape=image;verticalLabelPosition=bottom;verticalAlign=top;imageAspect=0;image=data:image/png,iVBORw0KGgoAAAANSUhEUgAAARMAAAC3CAMAAAAGjUrGAAAAYFBMVEX///9VrO5JqO1Pqu71+v6v1fb7/f/q9P2l0fVCpu3a6/tgse/c7fu22feNxfPw9/3H4fk2o+zU6Pqay/S/3vjj8Pxtt/DN5flZr+9ls++OxfOFwfJ8vfF1uvGiz/Wy1/Zcnw8fAAAQhklEQVR4nO1d6bqzKLMVMBozmZhJM+37v8uPoQoQinT3c86OJDvVPzqvqFuWxaqBAosiD2n366kfITNpH1w0y2019XPkI+Ws54wx0dzPUz9KJlIdBoWIEsFvq6kfJwc5D1wwK4Jf66mfaGpZnRoPEYmJ2LdTP9O0ctzsxog0WkuqbTn1k00l9V5wHxHGT506fh6a5fpPmqByL0Y6wgTTHkp9lccFH7ZTP+Dr5YeNdUTwvR4wD0BK8NNi6md8rWyXASLN7aiP99w7dj1O/ZyvE0kYI0QYHzSRHG/j42K3n/pRXySLGyeJpN2Hx/nlb9jl4zXsOXgkBzY+jspT/3y4CYp0gTVX7c0vTsFwEnyusVgLvjxM+9C/KtU8cEgY73XU114iqO6aX493ruAZPjU2rELzK4fNTLfMeNRgVOMBUMmI+SMNc2h+ZccNhZ6jBn7Vrspi+GzD3N0jvrjpV19fm4hbtQtbPoLokF8+KmJehcYGOy4ZJmgQ/KGV5DwE2sOa4YM0RUcw4443M21UDnHHT9oMlRHpst38c2xyGZlfyQ2aSKRRiVp+9DXbEEQmepOA27P3N8zVLOo3BHflPiQSzLG1gYsvhV+0khxPXA6hbsoO/Z+lOvTh4ODDwbSEhpnxJaQH6lCzeG9aDvq4jBffOGm7DZ1TaX/nmkG7e4iIaIyLr5tXIysFQ63d4EFpgt6Ubrt7TK0wOC4RX/DBOGVzUBYX/QhuGOS89K7h7B3Ttm0Y/dqgrpjFDMrnuuU4cOm3GH0BuuGD8UoeUej4bnaovewiRHqwGPUpYhKTUKrmjeELY6hX8jwEq46MttSjt2KV9kFowsPl4n9G7xzB6mymCU3LuocRdYh0joH//yZSzSJjg1a2fBj/4+hURTQXGCtevwU3dNHqfrebSEkY6s/lLSLmQxjSKU44YxO83grpgS9N04hBFSq9LTPolpGSCGGuWiwFjLucpYsHPheme8ZtFb0ZF12v/tE8NHWUm2hwiN3D3PERunaOdw+qSfBN1iZI+hUxkZg5Cue2Nqaz1aWBxFGxDfMnLoNCkCs6tcVjB+c2j2y55RiF/QxVe+S28hNAYfSnvkauvLREoAkRWctbmsuksXeni1mWqNThvB5zRLIYm18hvJqkdZibVt02+beSIFcMBldjluHLQ3buSpwIUR6EcTTamC34FTigjpx8haTpNkGuUoGMQsTWObfZ1GodmV8VwBj9/yHQguCmiKJmpvjGvPF5TK7IRZJ4oya2m0/S94RsCSJE/iQMkVWEVeTROrtEKZDgZiiWt7iNNTklVsaFRtBriO7rOOqxbFFFySZ14dUoCUGuTIAJXsUekKQoA2X5yCBpu6J6zUx8Vs0pRMCkLOLhJi80L7vcEGODbwAuAkpk3vbExdSG+RjnTV2CPZq9YNo+6DbprhC9hlq2BakIYKsoKkENqgehdHQ9ISotYX4ZTk9RCsSQWym40PGgtIuJpblrdSWoBI3RqoeAYZiKW6p57FlIz8wQSZyZVo3An2U0tcGcw06RK+N30+sjwdiWgzr7hqaaTV2Hc7/M5YZoihRgSElC4E8aGTZunzeO7vf6MqdoQpN5ta2rKA+rHh2Mcx1n5V0KrrxQbAG6R1IJ4yb9IAPC4KrmtZW2i3CmU0lzB88imqRQT86AIn+IASdpxgwNypmx4VFJxEWyFfCaxY0Yfr5G6p7wSEzAUc2iSQrV6Q1oEEUWgsHgJ+IDeenlCZUIASNkTzTKS18HibQ4ASiYCJEOHNGtf+i0SUoXLYUX24F+bSn9Ej0Mjwt1KX9xNVzr9876YUSyXquwwYvyP53fQfKnTUTPqXEjThBJUr6+9PFeC4lUZffe+AnCECpqY2gAwtoJaL0bNElyZTCvIb0SshVscEkqGLq9LwUFHSQGmQsqEpStUKJHGSob+tDkaiNkkkosW9QnAmsL2GtFg2LnKEi3laE9jAvW9HMPODIonhECTApJJawBV6gmsiwKklfDYeRoU4t0jOsci21sp9RzA8/Q5CqWwJ9zqpXBjGmxIgGbChJFmmBPotpW3Sm0oiXlpclRBRfHxSZKGtR9KsCxmZSio94FE/cXIxFJVNtq+gxzeLS3bvtMk6tA75QeGdYcbWkduk+cm60vlD2x7Hkk7SQmSka1jV5zD3ieyZGBqYFiTUNymxgS0le3wQ1RQ2Ca6+fN4HcQDruCBIJk2mlhYmpIijPJraAFRyLh6ulQS+qQ53/WZLYEmYZKS3mITSjn6Ml2sJyCTA4pogEdom2s4P6cxDoamA0iRkz+qMuXU2uJkgAUTBwl/DCBfapIcpVcAYjB/8JqlQZCgYrWMTHkAIkExXs6mziiPRY7VVGsSMTcwJg16JuPtA2VqCSdVxkBTT9wjGxd6HMHI3kmsvKqHVyWoCzHIQpMo9KufAn36mysbQNs2kS7oDADAVAEgyWwLRm7O+6tSC9OKhF2WQ8Yy8WY5BdLHFekX5wVJBIU9dA22XegH7m52WQgnVhFC90h+WIOwvgptssLkpwlpLkMHCOHBmuHUhZWNP4GJ8SbtgZl5i1RwTiwvDbWOz2TTo3EKSctUbJGSlyTTOEsMJwWJj2wCKeoxja2ueB9MawLk9F4g2VukKCEy2Ftj8EcSXJF92PEOQLTBlGlqE0o4A0SkAwZTBRTUtG+up2q0OMKmVPC47RhA1TQpSt0jND+vMss5CYd6cq7qQpYZs4xnW6JAZaopEy0Jd9Efl5JppAU8x35CjHXYTtk2dLMiQiOU3a0uy7pGYcPmUxRd8y3IHRGhWwwwV0cXUbWzkFUkmk5mliqxlHfAdmzupMjUw63fCEhQHHlfKNoTjBcmLRvIAPpTYEHkGCg29L+vC0+yVWCjAdWcEUFn9b0FtgfOj/kRUBHajrtDSAZ2wVbZkAlqfmoJK9Kkaf15Fa0cyz/Ss4Dx4jrHF8uomM+KN48XWpYsAbtcMKfl7d5h+WBAICdEpXWJcGdNpW8SFCJnbEgMlfvBAnkBG2Mm3L2vTMS3rrHxOsUJOI9INGa0uCSozbpUqAJrui8qpcaSDmvbwSJAsXqfIoZrTNLzwIyPxuSdF7fZOBoqdDTTqqANcWLJGg2/04nqJhLRL6T0PUAzB8VB2rCTImtMSKrP80pbwhJilzd+sYkldjFBqoyOnXKWywFHAm5UMBAgt5akkoYx4igTjiv7zlwqlSQa01wkkpsxjGVn1fnvCEkqVkpfkL+TQ4twdD/pYtL9G3edPdqChQbBSdNkkskpJLRUnY5Ldb5bxKCIuzCozSVuKm8lHub2fql/yq3YCEjRvXJINerzVuTWTt9zpsOHCOVD4pdGJkoXdIaYOsskv78m0Mymut2CZNHaty41EDan7cFj+8rCIqwsUnacXE8kXZePdjeVyoNipulS1OJcFFukoE/AhI1CyrsFgPPqERYBk4Ulyjhbz9wjJSDY8WkVyJtMLolaX/+YyCRnbRUkqYJOw0U7kQwOunz9mJ+1lu7iiKZjP5ISMhCnLC3yWT0R0LySPqlnhd2eHLS50GyedJbG/dTE86fC0lRp3jCzVg8cXAnWMn2CkkVK9rcbKrU4nMhSYDCXf1m2lB/LCQkKG5dSZX25ydctvX7EnGKnfl6kp//bEikpow77lz1dDJa6dKUj/z7MqogcG5JOhmdwbKtX5eF7bwtvE6XbenTPh4SqRIwfLz9X7dpf56Jqdc7vkRWWie8UvBEZTRAMuWjvk467lcNJNZUAySnv6AlSs7c22AhnYxWWpLruoL/f9m6eC5ZXMJyW6P0KkmsdARIhrzWKL1GynTmNZ8loK+VJ8loZZj+opYcn/jz+S7I+VVp0+nZvwrJs1qKjBf3/bYckjUofxaS0YrAESTZrmR7hZAbnOS9bOv3hYj//jokhKaI/q9DEk1zfSFRMs4V8NwX971G/K1yv5CAWFDsdrBfwXliV1T+FQTlqyUjUek2/n4Lcn5XLvwLSSSXt1yQ85WvfOUrX/nKV77yla985UOlXTk5/t1ZqpHMGm5FsP7yRrvW/JrMwo81DZOiYj4U0UybmJqFhQFi0vXQBhOeGSbuY31TSFaYCOHqoCfMluWEyXCS/zGYj5iwojUjTMw0VXmGSqyd/0xVGqCydW3tsf7vxWtlHdh/8z2GiWfNfExwYwImoPb1uN6clowtT3s3mqqNlkNRdHd7XflzEpyzq8Rye72odgVWtcdTlZyv+l8Og3o+MOkALPcWgcfF7Csi9D0m85bGmBQLM0lzkj+rw6nhhmSE95HYkivqaR7SsxFMwJfge1PXpj4uIg9L4Upnqh5O1fJjGmypzhxurj6WDOp2Eh678cmKegJMiqV5KPlrMdqKTuBmFKW5YKYXVhtMzq7Sj19MjYHQmOib4aIns+GuwB2b/ZWDHPYaGu37ILLBBJS3sOPIPTh8VdFc8BgYYlL75SeiZ/8Kk/H6Uli6kT0mxRzGDT6j+VKQwYRB19V1J6fwrkP/gAnUNokGlNF8Dy1TTMzY6dXPIxdyUJxOCIvZm7EcPffKLFvRv4f9xgH4HJPWXMM3XYdrOhSj5omJsYXCrGg83Q76uTqwRnqBsMNE6YW87gpMqRCzG4H8AyYPc0NtkcxHbmBdIdjiaeucxpi0AzCo+ReeVBrtWerfVhXuh1r6J9CGu83CJl3PMan0yBOwCPeiNyYyjJKdz9YeYEFBE74nc1ajfiImAgzo0bzyE5wJSwWfY7IYlWV0wg6enDCRvr2UHh0Gtz66XiwWNar0Th0BTOwiv5HqF8gJzzExP3HRRmneg34tOWEyigGR3dqLMMmmqxn/PiY2xfETkPTjX/gnerSwYdVpWenTDINnhYkT+3E/9yUIgMvHpB/fQFjuMduTP8cEaLkBYU7T8sSE496w8d7rHiZueIWYHP49JuO/q0/LEBM5Vvb4hRQ40ogeHSsfk/34Bp+IiSEOdl3bvpkyYHFflGV7voZ84nZuAMN1DK77F3zCuC+73DDh57Ztx/kP/Z0cXON4DO2Ow+Rg/m2rtm7/wu4Y3JZ160mt/1JOmERJHOOK2a9zpzFZ+Z6vHHKRz4bUA76rwgS8ZSJzlDcm2tVs7Oe5k5i0JhrELUM3ESaMGV2DqFFh0gY8XVoMtvnl2ZwYTPDz3fs0JjhYzDZTuBhBY1IM5vfF3QJ8H4OcwI+Dn+yiMIOJbignSwqnMAF/1Cz9hPVtNCbwPXMh9tu13U/JYILBz7Df24SCviFGANeubVcP6S7icnX8Pu5+tplubXISE/NeRb9fz3GbJBoTGBTadjlXWHcI1wp6TjL4yBf8wI8Q+iLcNcburCKP5qcnC/zonUqbRv6Jj8nC390P1UFjUvK4wWASJvHYzgRMpXcoP0z8DTzE/Rkm/to3fvX8E79FLH9Gucd2/G0S+20N769Oh4mZtCYwqa4c/bmZHxfro+ONcX9sBv5WzHxMig3cgw+l9k9cNr662JEmeG83u68GO94mw2TdL6Uw0vgdBiEjNHHrirM+i6uDpf7Zj7eUXl0Yl2cO6yLApFgPsoH3j7I4MHWht15/cel5oy+be1M55b5XV7DbdBO0lZFE47E7d7U77ckVrTxzpQ4GmJh7tPR15eK8PnTH4F7lqutWH1UeFGLylS8mlHwxieWLSSxzN4f+FZDDTcvUe0v9D3P6x0kwnN3YAAAAAElFTkSuQmCC;fontFamily=Anton;fontSource=https%3A%2F%2Ffonts.googleapis.com%2Fcss%3Ffamily%3DAnton;fontColor=#999999;fontStyle=0" parent="GAXHbb7aLfkMUTttqBqI-259" vertex="1">
                    <mxGeometry x="34" y="74.5" width="62" height="41.5" as="geometry"/>
                </mxCell>
                <mxCell id="156" value="" style="shape=image;verticalLabelPosition=bottom;verticalAlign=top;imageAspect=0;image=data:image/png,iVBORw0KGgoAAAANSUhEUgAAAOEAAADhCAMAAAAJbSJIAAAAolBMVEX///8AQP8ANP8AKv8AMP/l6//n7f8APv8ANv+Qpv8AL/8AMv8APP8AOf8ALf8AOP+In/+Cmv/1+P+6yP/y9v8ARP/P2f/t8v/K1f/Byf/d5P/X3/+Xqv/Czv+fsf8oVv9/lv9zjf+ltv9Ibf8xW/+0wf9ohP8/Zf95kv8MSP+pu//U3f/N1/9rhv9de/9Wc/8eUP82Xv9bef88Y/8AG/9qgP9V3mCIAAAP40lEQVR4nO2aaZuquBKAIUQTSQigojQuILihraJe//9fu1UBl17O0qe7z8w8T94PM7ZyQiq1F1iWwWAwGAwGg8FgMBgMBoPBYDAYDAaDwWAwGAwGg8FgMBgMBoPBYDAYDAaDwWAwGAwGg8FgMBgMBoPBYDAYDAar+09v4Av4uQyr/76I7fSnP/tV6y9t5Lt4tuVPf18K2ftLW/kepi7Z/fSCgcOc7L9rqe29Ys7g59cUnk2qyXdu4hvXntrc9opfXJR4zJZOMfqmPXSz/62/y0QmFWU285JfXbdxbdv21D7+2PLd/rDd0rSH/R9eFafUF9WPl74u0m4PP3gO3cVKSdi5u/n1tWtqaxmP41+eBtjcKF6Mw91hNa9KW3LAs8tqvjqtp/HbqBxSTtaCu9mbX1pxvj4VR1zEhzVYVKbH1WGZjRfx9jei+yiotHw2Xf/6Yss6ELzWloJX2eL95fujyWY8K9JIcqqoEIJSV7lU4+IXBL7xqsvm0esGqXCPiZUcqageo0F7cyklbVapF3H1aviNolxGVbEMNr3t8N29dCdhRYiWzxaH3xEQok0tos0kdx03Pa2D8TTfbDb5dNwBfR0j5SjYQb0BWVZHPOx88TSJJ3E8eVpM8aJKKvjdSTtXS1g7nIz1pzHhTtZ8m3QqB1ZSvJwfZsF08zSZwDJPvUXeyZbFvIpkc4SuUo4j02KZwW42i8l2O4p7eedSOYpIBpuFDZNfRZnbqax8OyrhVFhZ3c/1EeUQ2NEunD5tk/dP1uonk+DAFBFOkffRA4W7gvjV7YCDjc5UpOCN/bxwCKd8lfWS9523O0xGkxxPrOSOArXSq6E4NcoVUQnSeWVp+79fkQ1BvPOeQFg9LSbT8LJKS+YR4kdVujrNwvFm0hr2f2e1fm9JqU/LIBPcQQXGqdKBpuNwkQUl5ZTuFz84o1dLDVvxYhrMLqDYUhIuJbjqaT1e5Hub+WS5YrL8rYVqWoTJNN95xCPnxe//s/fo5hVjnNM5Wusa4oFUM/iUpIJzyeabz+UOCKHcJ3KWp5LRDxWcPQWRJhuE+pRPm8+l6VRK3oH/x5VgGBFIiWoMQA2nT63byg8uJW7Z2WZC2uqDqpgR3MlmuCiUINRfhZM/Lcm3c48esYKAbbBojyJKipXhdk758U9Li6Q3OxNKqDo99fOIQxj9rTzxQLfyINKIdGENp0fHBSlldQg3k9EHbF0TQOAM4P9bUKAtBrHOtqzOF6HDtXI/RDteBAWkFyIUBLGhtUhhYds/f3QdiDYooq9KKBK6vZntMekRHcJItTrtsqCDKWQxiUftfveHzpSkLp1rBTo6NncntM5E0sHqbTSn7vwnhUW3n8S9zXQchNl6ttwX54pD+MT0wDyWYRe0iZSvQ+kf+HO78lh6YkJFIexhuCI2q+Y2dVydkV3MITrRQ3KU1eoS5s9v7XhMuQgtney1WIX11EgIZqWDaig4Hb893uQ5D5dFaiudIoiuBvRdlVLRHNKDWIExjbLIFfKQQhj9Ix8CEeWqFxBFyWraspaclUF7mEA1E2Szy2GVRmgedWkgPS6Ud8xedC7JitJUW6OQng4xnQcJIZTVwlO6eqHGbbAquRLck7Jen9HyuCrQbsY5VDajnc34zkrGK6g4SNgrpFf+RoH5HpAWpTe1Fmc4OpKGR4j6UfB4WHmzBftWA9H5vfOaUuKgDNtUSHXBEOPGtYTXgyHVFuV3yIMaJ3OBRvi4LHuspkcz6dnsmKVEue5xYU3hIKo/jvWJYozOYysJjsSlqAXGnSrbJJDvoZkYLebSfgV0XvUZJCsl5qjAjiN92CNcypSlJWS211wsdRB6ToVq1JgUztslV4vmhslmHTnodqB/lx+hIIzn0DE5z38qIARCcB+pDrBCMsYSDKOFRyjUbFUVQcHoc+q/3pDnY2KaekSF4P2DI2Xq0LZaoG55riUkeVP5ngWjRziFbqg4GItlLXzvzXIU6jq8YVr6UIZDnWVLouwDdj7xATsKMftzAa2urk59usJNd+MgJawsSueKXQS9nXi9J6bG7ULRCk82INKjuPce1W6oJaSTun/xZlMlJUFLjkuhivZYsdeLkQuUt9HtjnB3RuadGCPnZkV1GE0/VRbFkKWPKSFUzHq40I6zKh+2k+fn52vfVrwxK8YhfWbw0wg8kK60k8wgKau4kRDCfAF/w4f2XEDSxXSyht6RvxFQNmmuPYI7Jq0hlIAEVdaFk6WEpEcokj45HZyAI8/yk0eFIqCxJGVMiH3eup/bgL7eFiZ0XZdRCKHT+qozuCHp3iW05phu5RCKN0/Sa033ZiV6nwd0W/lFCMbSVi8ohBLUO+UQdfgnnLBmVHKeLlp5gX2aSyEVedITFJrSrNPprC+r8u3Bq0y3SC67BhBrSBhmwwcJ2zbo3oevtuCp7hkbq7V6aw7l6rKG+0CvWFHhSfD6EvOwokXeWqScpF8wUeoXQorjBAwjq5SiTC4rnfWvPRqky5c5g0S6P4KgIG9JoOeCSwWPEoJnwj9z8GPgQLmk1Wi/XMqGurPpAusbHkNoIZSqMnCZpyPs6/A1Y60lAbVEY7T30ULiuC6Z5MFuv4cWeDEZbDePRy9F3RzB/uX8tkSGbjh5IaGVQbSRegSfnCmjKap7Jh7X8vJ4MllMw9nlslyPeyMcdsoF5tBWJwKFk/2XyGfVPgMh+owNRs49O5uA0/eBYSuJ8/DyeOp62Dqu5ybqVmpgNrTbLyXson3TukKAmCv1jGNSkQdz2Id5/HCrIPJ4brUm4Vmhsr2PV9s/oiWlDdW8cpVfnRnESldxFgGMgN1Sym8KdGZdXa1BhoEtiKuVdh1M3NZLCa0FmC5vkhm0UkxXb93dPecTHJiAMHgrG24KYrFz5SnqUjsCP/5on/MTthJK+XhzsqFI9UFc6PCgBIbim/heWcyC5txJqRVIPal2z7yJLQi6Ic9eS2iBXuXxeo9AQerUaiyvy3XWRen5BMt7jAAYfD2IoqyY9nawoy8dWyeV4KwzBAsZ74qKy/Nk8vQ0wdZJ/1zpSsqtFaiYHjMd4SCcJhCE/GqPvUcJT1BhVrcRVFyROvh2dzqoslJ/3R7F9c3OkkNkhYxl9TvSJ9UfVts/Au7qEVKMR7ghiJOHpovot7a94IIeRUrc+BRCqE4W1hqkchtZ0A2lPozFo4TwtbxLaHVnxPa4roBQjaxcdp62reb3wcnjGIy7SX7gxFPLr384MCgEk0RE6ep0gKRIqkIPqSF641COOUvYSrugjMs6S2Ov69deNsSitH5w+SBhf02u3nll7UOrhKV7f+ngMwgCJllW83NRVAT0fdgX85IIj4ni03n+XdYCsx2Oo7mPLX+do3gJFsUjrUDl2XLXHG4fWiAW3YSt3fAmYb+3dHXh9tD+DlIdsjyl1YjDFxuqbZ0KPcl8ztH5sfD58Ezmd+lC1z+fLvIgXK+XklVBGIw3cRKAB+5Aga0CCmd2HycUkGMIJi8LI1FjsCihPBeVcj3tu9Xd2MbXIMpUgVOFpSvtMImh4Q7HYM/rLAw608V0zrzq255wJhXkuUMnHiVJnEq5RhfpXgTXz42nTDdS9NYCT0Hl9Rwfi3On9ieMNNAXNrJ45B4uAgdFrntfn2k1Si4u+mjHjJWDBDLi+ACJ+TufxPd3Dg5moKrHfpjLU74pido3Hqg33Vgj0HLsOl8My5sbPk4xmFTn+14X2DlBVS90VQPeCMlueFIkCqeFxETIORf4vMSZ/fjp3ZfIGE8v58rmAjOU5wlBIuwdc6iK6+b1nuCsCiMoyDBQd8FvEjLBVw+vDAwjzLIy73YXlVerN0e5I8KhxcSEKHy7Ol+m8V95Bt9tJdvnSRwfJFP7ISpQMVLldZdxH65jMUpB/s7dDW8SsjJ/kc9wmsCkzuHtVNbeeID8MtwrJovBczwYJX/9NZF24fkeKnBj+1CuWc0oVOTXCyagO39nWXsI9KKpsG469F++LBDB6bjNXH6gOwwCrRKOoBbS94svrM9+n9z13QM6S+GC88d1G4/mdXsY0YeqjNndbsRuvXoza8NhS/S468HVZzUHrPSncyGVvsHB5fSTz4f+gPZB8fqIoUevH1s3gzdGbxeB8mwVJ7B7fs1gKCHvoD3zx8cyORipmF7/2ght3iGVPtdGEhG1/MtqXETcOYFftE8uE/XbKS18xQHNS93sL9eZHvd7dcOm8n7S3e/DGFRnzNvEAs0bW+I4Fczdt/E9GacuCv8W3R3YjQ51ktcPIBpxWPQiXyQcS4CdV4dUjZZwUZdH8q4WLeGtEntuJLS6a0dypoO1S+hnpoYfYxIJV6ergyPrZ4HIxcO9Q5chy9uV2F/gI8N7CmkktNJmStMwJo8hSpd2tYYHUGQ4p9obhf2drzLd6c4cLrUCIeXT+/s/WIaWOm7eC5Ww6fT47fivEo6wgqE3z8Nm2LvNJHZQHYlGo92MSm5rNUr+3dleM6mEwup/uFSSRPdDHUE88S66KruHjLjJDfdQeJXQClycNV+Nd6iwqN/Wf7ShFWH3NwyfSyLVpY8jf/UXvHHmcl36owLV7qG+QDuTpzFmee/+VosuryEb3pL1TULr7D1OWrBMl830+uI/ah1vqkCNdfPC1fKbJKuJK0HPWPfvHVaPLG6c9eNrgjmR3VPdRVdgsrpddpcQ36Cz1bV5wvBpe9UI4yZGIfXicdIEvVGrcUUfDeerAZfgOsQtSs5eNdlD72HS6d72sKAv3fBBQmuMwde/+uwez0byAxRK9oPk11vvQI3aQsfCp7Nvqk2fQYF6xLwE32ev/KFXe1zd/NzzxdB56YaPElpHtNNrPMV3ePSzVlyBvh2E9jCu4akmKRXf837oWnGBg5IJ3Mq9vI5p2hyp4B42P/L+qvUK9+3cE9+jhC3M++oaltr2dSgJ5fw79+9eXMi+KFogfPX1ahygAge6Q5QsfRPQ+noWFW+T1kC3u7fIMsUAdJ996/L8ptINeYxC3X1T9lW59S69FHoZnCZs51SUH3w99FeEwtMTND3LZPsQCTT4KcuW+CSpHHemeQe15i2nyLjT2eEPabbO4PowXGcn/PXSqf9tgB2FPIdBBxl35nXkPWSz2RrIwoYM/5rNshNrZrLdzPVE9oXybVNRn9m6fqygXyTlnCD1Rx0yGSHQEesrPGzWBfxc/1Bfjv+pfyU19fNCyV/8aetXTN+lvrmu3uJIiK947lQTOL5eNSkd8m/AibA0mFFfvwXweUZnSqon+DC8GuaVzt/j5Y2DEEMXJEl6/gI1jrn3DYHrS+jOlMffvm70MdqFkva03/530p8yiS9Wf4KNDiHE+beCrYtUH37574Gk9V8g+Xc6kcFgMBgMBoPBYDAYDAaDwWAwGAwGg8FgMBgMBoPBYDAYDAaDwWAwGAwGg8FgMBgMBoPBYDAYDAaDwWAwGAz/KP8HHJpU9fkfpToAAAAASUVORK5CYII=;fontFamily=Anton;fontSource=https%3A%2F%2Ffonts.googleapis.com%2Fcss%3Ffamily%3DAnton;fontColor=#999999;fontStyle=0" parent="GAXHbb7aLfkMUTttqBqI-259" vertex="1">
                    <mxGeometry x="111" y="66" width="66" height="57" as="geometry"/>
                </mxCell>
                <mxCell id="149" value="" style="sketch=0;aspect=fixed;html=1;points=[];align=center;image;fontSize=12;image=img/lib/mscae/Docker.svg;rounded=0;shadow=0;glass=0;fontColor=#999999;imageBorder=none;fontFamily=Anton;fontSource=https%3A%2F%2Ffonts.googleapis.com%2Fcss%3Ffamily%3DAnton;fontStyle=0" parent="1" vertex="1">
                    <mxGeometry x="535" y="80" width="49" height="40.18" as="geometry"/>
                </mxCell>
                <mxCell id="93" value="" style="shape=image;verticalLabelPosition=bottom;verticalAlign=top;imageAspect=0;image=https://raw.githubusercontent.com/spark-notebook/spark-notebook/master/docs/images/spark-logo-192x100px.png;rounded=0;shadow=0;glass=0;fontColor=#999999;imageBorder=none;fontFamily=Anton;fontSource=https%3A%2F%2Ffonts.googleapis.com%2Fcss%3Ffamily%3DAnton;fontStyle=0" parent="1" vertex="1">
                    <mxGeometry x="548" y="133" width="129" height="57" as="geometry"/>
                </mxCell>
            </root>
        </mxGraphModel>
    </diagram>
    <diagram id="2YNCDYvb93VAujGQVLQF" name="População  Data Lake">
        <mxGraphModel dx="863" dy="993" grid="0" gridSize="10" guides="1" tooltips="1" connect="1" arrows="1" fold="1" page="1" pageScale="1" pageWidth="1654" pageHeight="1169" math="0" shadow="0">
            <root>
                <mxCell id="0"/>
                <mxCell id="1" parent="0"/>
                <mxCell id="xpUTLLG01JsTGCDyICMH-1" value="&lt;p style=&quot;line-height: 0%; font-size: 20px;&quot;&gt;&lt;font style=&quot;background-color: initial; font-size: 20px;&quot;&gt;Fontes de Dad&lt;/font&gt;&lt;span style=&quot;background-color: initial;&quot;&gt;os&lt;/span&gt;&lt;br&gt;&lt;/p&gt;" style="swimlane;whiteSpace=wrap;html=1;fontColor=#999999;fontFamily=Anton;fontSource=https%3A%2F%2Ffonts.googleapis.com%2Fcss%3Ffamily%3DAnton;labelBackgroundColor=none;labelBorderColor=none;dashed=1;fontStyle=0;gradientColor=none;fontSize=15;swimlaneLine=0;startSize=8;verticalAlign=top;" parent="1" vertex="1">
                    <mxGeometry x="9" y="82" width="310" height="1016" as="geometry">
                        <mxRectangle x="37" y="80" width="132" height="26" as="alternateBounds"/>
                    </mxGeometry>
                </mxCell>
                <mxCell id="xpUTLLG01JsTGCDyICMH-2" value="CSV, / Excel /Json / Avro / TXT / Etc..." style="sketch=0;pointerEvents=1;shadow=0;dashed=0;html=1;strokeColor=none;fillColor=#505050;labelPosition=center;verticalLabelPosition=bottom;verticalAlign=top;outlineConnect=0;align=center;shape=mxgraph.office.concepts.document_blank;" parent="xpUTLLG01JsTGCDyICMH-1" vertex="1">
                    <mxGeometry x="111.75" y="78" width="89" height="102" as="geometry"/>
                </mxCell>
                <mxCell id="xpUTLLG01JsTGCDyICMH-3" value="&lt;p style=&quot;line-height: 0%;&quot;&gt;Tópicos Kafka&lt;/p&gt;" style="sketch=0;outlineConnect=0;fontColor=#232F3E;gradientColor=none;strokeColor=#232F3E;fillColor=#ffffff;dashed=0;verticalLabelPosition=bottom;verticalAlign=top;align=center;html=1;fontSize=12;fontStyle=0;aspect=fixed;shape=mxgraph.aws4.resourceIcon;resIcon=mxgraph.aws4.queue;" parent="xpUTLLG01JsTGCDyICMH-1" vertex="1">
                    <mxGeometry x="84" y="225" width="142" height="142" as="geometry"/>
                </mxCell>
                <mxCell id="xpUTLLG01JsTGCDyICMH-4" value="" style="strokeColor=#dddddd;shadow=1;strokeWidth=3;rounded=1;absoluteArcSize=1;arcSize=2;verticalAlign=top;" parent="xpUTLLG01JsTGCDyICMH-1" vertex="1">
                    <mxGeometry x="89.38" y="435" width="131.25" height="44" as="geometry"/>
                </mxCell>
                <mxCell id="xpUTLLG01JsTGCDyICMH-5" value="&lt;br&gt;&lt;br&gt;&lt;br&gt;&lt;br&gt;&lt;br&gt;Request API" style="sketch=0;dashed=0;connectable=0;html=1;fillColor=#757575;strokeColor=none;shape=mxgraph.gcp2.logs_api;part=1;labelPosition=right;verticalLabelPosition=middle;align=left;verticalAlign=middle;spacingLeft=5;fontSize=12;" parent="xpUTLLG01JsTGCDyICMH-4" vertex="1">
                    <mxGeometry y="0.5" width="32" height="32" relative="1" as="geometry">
                        <mxPoint x="5" y="-16" as="offset"/>
                    </mxGeometry>
                </mxCell>
                <mxCell id="xpUTLLG01JsTGCDyICMH-6" value="&lt;p style=&quot;line-height: 0%;&quot;&gt;&lt;br&gt;&lt;/p&gt;&lt;p style=&quot;line-height: 0%;&quot;&gt;&lt;br&gt;&lt;/p&gt;&lt;p style=&quot;line-height: 0%;&quot;&gt;&lt;br&gt;&lt;/p&gt;&lt;p style=&quot;line-height: 0%;&quot;&gt;&lt;br&gt;&lt;/p&gt;&lt;p style=&quot;line-height: 0%;&quot;&gt;&lt;br&gt;&lt;/p&gt;&lt;p style=&quot;line-height: 0%;&quot;&gt;&lt;br&gt;&lt;/p&gt;&lt;p style=&quot;line-height: 0%;&quot;&gt;&lt;br&gt;&lt;/p&gt;&lt;p style=&quot;line-height: 0%;&quot;&gt;&lt;br&gt;&lt;/p&gt;&lt;p style=&quot;line-height: 0%;&quot;&gt;Banco de Dados&lt;/p&gt;" style="shape=datastore;whiteSpace=wrap;html=1;strokeWidth=2;" parent="xpUTLLG01JsTGCDyICMH-1" vertex="1">
                    <mxGeometry x="110.63" y="662.5" width="110" height="100" as="geometry"/>
                </mxCell>
                <mxCell id="xpUTLLG01JsTGCDyICMH-7" value="&lt;font style=&quot;font-size: 20px;&quot;&gt;Ingestão de Dados&lt;br&gt;&lt;br&gt;&lt;/font&gt;" style="swimlane;whiteSpace=wrap;html=1;fontColor=#999999;fontFamily=Anton;fontSource=https%3A%2F%2Ffonts.googleapis.com%2Fcss%3Ffamily%3DAnton;labelBackgroundColor=none;labelBorderColor=none;dashed=1;fontStyle=0;gradientColor=none;fontSize=15;swimlaneLine=0;verticalAlign=top;startSize=18;" parent="1" vertex="1">
                    <mxGeometry x="470" y="82" width="1150" height="1016" as="geometry">
                        <mxRectangle x="37" y="80" width="132" height="26" as="alternateBounds"/>
                    </mxGeometry>
                </mxCell>
                <mxCell id="xpUTLLG01JsTGCDyICMH-15" value="&lt;font style=&quot;font-size: 18px;&quot;&gt;&lt;span style=&quot;color: rgb(0, 0, 0); font-family: Helvetica; font-style: normal; font-variant-ligatures: normal; font-variant-caps: normal; font-weight: 400; letter-spacing: normal; orphans: 2; text-align: center; text-indent: 0px; text-transform: none; widows: 2; word-spacing: 0px; -webkit-text-stroke-width: 0px; background-color: rgb(251, 251, 251); text-decoration-thickness: initial; text-decoration-style: initial; text-decoration-color: initial; float: none; display: inline !important;&quot;&gt;Data Lake Camada Transiente&lt;/span&gt;&lt;br&gt;&lt;/font&gt;" style="text;html=1;strokeColor=none;fillColor=none;align=center;verticalAlign=middle;whiteSpace=wrap;rounded=0;fontSize=16;" parent="xpUTLLG01JsTGCDyICMH-7" vertex="1">
                    <mxGeometry x="870" y="525" width="160" height="80" as="geometry"/>
                </mxCell>
                <mxCell id="xpUTLLG01JsTGCDyICMH-43" style="edgeStyle=none;jumpSize=18;html=1;exitX=1;exitY=0;exitDx=0;exitDy=0;exitPerimeter=0;strokeWidth=2;fontSize=20;endArrow=classic;endFill=1;startSize=22;endSize=30;sourcePerimeterSpacing=1;targetPerimeterSpacing=0;entryX=0;entryY=1;entryDx=0;entryDy=0;entryPerimeter=0;" parent="xpUTLLG01JsTGCDyICMH-7" edge="1">
                    <mxGeometry relative="1" as="geometry">
                        <Array as="points">
                            <mxPoint x="750" y="608"/>
                            <mxPoint x="750" y="508"/>
                        </Array>
                        <mxPoint x="325" y="605" as="sourcePoint"/>
                        <mxPoint x="870" y="508" as="targetPoint"/>
                    </mxGeometry>
                </mxCell>
                <mxCell id="xpUTLLG01JsTGCDyICMH-47" style="edgeStyle=none;jumpSize=18;html=1;strokeWidth=2;fontSize=20;endArrow=classic;endFill=1;startSize=22;endSize=30;sourcePerimeterSpacing=1;targetPerimeterSpacing=0;exitX=1;exitY=0.75;exitDx=0;exitDy=0;exitPerimeter=0;entryX=0;entryY=0.638;entryDx=0;entryDy=0;entryPerimeter=0;" parent="xpUTLLG01JsTGCDyICMH-7" edge="1">
                    <mxGeometry relative="1" as="geometry">
                        <mxPoint x="870" y="436.32400000000007" as="targetPoint"/>
                        <mxPoint x="325" y="424.25" as="sourcePoint"/>
                    </mxGeometry>
                </mxCell>
                <mxCell id="Zdhqwa16ZBOhIWSIP-NO-1" value="" style="aspect=fixed;html=1;points=[];align=center;image;fontSize=12;image=img/lib/azure2/compute/Function_Apps.svg;" vertex="1" parent="xpUTLLG01JsTGCDyICMH-7">
                    <mxGeometry x="112" y="321" width="227" height="200.29" as="geometry"/>
                </mxCell>
                <mxCell id="Zdhqwa16ZBOhIWSIP-NO-2" value="" style="aspect=fixed;html=1;points=[];align=center;image;fontSize=12;image=img/lib/azure2/other/Worker_Container_App.svg;" vertex="1" parent="xpUTLLG01JsTGCDyICMH-7">
                    <mxGeometry x="109" y="592" width="209.15" height="203" as="geometry"/>
                </mxCell>
                <mxCell id="Zdhqwa16ZBOhIWSIP-NO-3" value="" style="verticalLabelPosition=bottom;html=1;verticalAlign=top;align=center;strokeColor=none;fillColor=#00BEF2;shape=mxgraph.azure.storage_blob;" vertex="1" parent="xpUTLLG01JsTGCDyICMH-7">
                    <mxGeometry x="859" y="306" width="256" height="223.5" as="geometry"/>
                </mxCell>
                <mxCell id="xpUTLLG01JsTGCDyICMH-36" style="edgeStyle=none;jumpSize=18;html=1;entryX=0;entryY=0;entryDx=0;entryDy=0;strokeWidth=2;fontSize=18;endArrow=classic;endFill=1;startSize=22;endSize=30;sourcePerimeterSpacing=1;targetPerimeterSpacing=0;entryPerimeter=0;" parent="1" source="xpUTLLG01JsTGCDyICMH-2" target="Zdhqwa16ZBOhIWSIP-NO-3" edge="1">
                    <mxGeometry relative="1" as="geometry">
                        <mxPoint x="1340" y="392" as="targetPoint"/>
                        <Array as="points">
                            <mxPoint x="910" y="230"/>
                            <mxPoint x="1240" y="230"/>
                            <mxPoint x="1240" y="392"/>
                        </Array>
                    </mxGeometry>
                </mxCell>
                <mxCell id="xpUTLLG01JsTGCDyICMH-38" style="edgeStyle=none;jumpSize=18;html=1;strokeWidth=2;fontSize=18;endArrow=classic;endFill=1;startSize=22;endSize=30;sourcePerimeterSpacing=1;targetPerimeterSpacing=0;" parent="1" source="xpUTLLG01JsTGCDyICMH-6" edge="1">
                    <mxGeometry relative="1" as="geometry">
                        <mxPoint x="580" y="794.5" as="targetPoint"/>
                    </mxGeometry>
                </mxCell>
                <mxCell id="xpUTLLG01JsTGCDyICMH-41" value="Cron / Airflow / Trigger / Kafka" style="fillColor=#000000;verticalLabelPosition=bottom;sketch=0;html=1;strokeColor=#ffffff;verticalAlign=top;align=center;points=[[0.145,0.145,0],[0.5,0,0],[0.855,0.145,0],[1,0.5,0],[0.855,0.855,0],[0.5,1,0],[0.145,0.855,0],[0,0.5,0]];pointerEvents=1;shape=mxgraph.cisco_safe.compositeIcon;bgIcon=ellipse;resIcon=mxgraph.cisco_safe.capability.time_synchronization;strokeWidth=3;fontSize=18;" parent="1" vertex="1">
                    <mxGeometry x="350" y="820" width="80" height="67" as="geometry"/>
                </mxCell>
                <mxCell id="xpUTLLG01JsTGCDyICMH-45" style="edgeStyle=none;jumpSize=18;html=1;entryX=0.047;entryY=0.581;entryDx=0;entryDy=0;entryPerimeter=0;strokeWidth=2;fontSize=20;endArrow=classic;endFill=1;startSize=22;endSize=30;sourcePerimeterSpacing=1;targetPerimeterSpacing=0;" parent="1" edge="1">
                    <mxGeometry relative="1" as="geometry">
                        <mxPoint x="230" y="460" as="sourcePoint"/>
                        <mxPoint x="590.105" y="469.91499999999996" as="targetPoint"/>
                    </mxGeometry>
                </mxCell>
                <mxCell id="xpUTLLG01JsTGCDyICMH-46" style="edgeStyle=none;jumpSize=18;html=1;entryX=0;entryY=1;entryDx=0;entryDy=0;entryPerimeter=0;strokeWidth=2;fontSize=20;endArrow=classic;endFill=1;startSize=22;endSize=30;sourcePerimeterSpacing=1;targetPerimeterSpacing=0;" parent="1" edge="1">
                    <mxGeometry relative="1" as="geometry">
                        <mxPoint x="230" y="560" as="sourcePoint"/>
                        <mxPoint x="580" y="560" as="targetPoint"/>
                    </mxGeometry>
                </mxCell>
                <mxCell id="DOQo53VwPCsxF1pEC5B3-1" value="&lt;div style=&quot;text-align: center;&quot;&gt;&lt;span style=&quot;background-color: initial;&quot;&gt;&lt;font face=&quot;Anton&quot; color=&quot;#999999&quot;&gt;População do Data Lake&lt;/font&gt;&lt;/span&gt;&lt;/div&gt;" style="text;whiteSpace=wrap;html=1;fontSize=50;" parent="1" vertex="1">
                    <mxGeometry x="580" width="480" height="50" as="geometry"/>
                </mxCell>
            </root>
        </mxGraphModel>
    </diagram>
    <diagram id="c5HHca_L4iKRY3J6ODp7" name="Processamento de Dados">
        <mxGraphModel dx="2828" dy="1498" grid="0" gridSize="10" guides="1" tooltips="1" connect="1" arrows="1" fold="1" page="1" pageScale="1" pageWidth="1654" pageHeight="1169" math="0" shadow="0">
            <root>
                <mxCell id="0"/>
                <mxCell id="1" parent="0"/>
                <mxCell id="uHXM47nCu-cVry_dLeUl-1" value="&lt;p style=&quot;line-height: 0%; font-size: 20px;&quot;&gt;Landing Zone&lt;/p&gt;" style="swimlane;whiteSpace=wrap;html=1;fontColor=#999999;fontFamily=Anton;fontSource=https%3A%2F%2Ffonts.googleapis.com%2Fcss%3Ffamily%3DAnton;labelBackgroundColor=none;labelBorderColor=none;dashed=1;fontStyle=0;gradientColor=none;fontSize=15;swimlaneLine=0;startSize=8;verticalAlign=top;" parent="1" vertex="1">
                    <mxGeometry x="20" y="82" width="310" height="1016" as="geometry">
                        <mxRectangle x="37" y="80" width="132" height="26" as="alternateBounds"/>
                    </mxGeometry>
                </mxCell>
                <mxCell id="uHXM47nCu-cVry_dLeUl-22" value="&lt;font style=&quot;font-size: 30px;&quot;&gt;Camada Transient&lt;/font&gt;" style="sketch=0;points=[[0,0,0],[0.25,0,0],[0.5,0,0],[0.75,0,0],[1,0,0],[0,1,0],[0.25,1,0],[0.5,1,0],[0.75,1,0],[1,1,0],[0,0.25,0],[0,0.5,0],[0,0.75,0],[1,0.25,0],[1,0.5,0],[1,0.75,0]];outlineConnect=0;fontColor=#232F3E;gradientColor=#60A337;gradientDirection=north;fillColor=#277116;strokeColor=#ffffff;dashed=0;verticalLabelPosition=bottom;verticalAlign=top;align=center;html=1;fontSize=12;fontStyle=0;aspect=fixed;shape=mxgraph.aws4.resourceIcon;resIcon=mxgraph.aws4.s3;strokeWidth=3;" parent="uHXM47nCu-cVry_dLeUl-1" vertex="1">
                    <mxGeometry x="67" y="404" width="198" height="198" as="geometry"/>
                </mxCell>
                <mxCell id="uHXM47nCu-cVry_dLeUl-7" value="&lt;font style=&quot;font-size: 20px;&quot;&gt;Processmento dos dados&lt;br&gt;&lt;/font&gt;" style="swimlane;whiteSpace=wrap;html=1;fontColor=#999999;fontFamily=Anton;fontSource=https%3A%2F%2Ffonts.googleapis.com%2Fcss%3Ffamily%3DAnton;labelBackgroundColor=none;labelBorderColor=none;dashed=1;fontStyle=0;gradientColor=none;fontSize=15;swimlaneLine=0;verticalAlign=top;startSize=18;" parent="1" vertex="1">
                    <mxGeometry x="376" y="82" width="1244" height="1016" as="geometry">
                        <mxRectangle x="37" y="80" width="132" height="26" as="alternateBounds"/>
                    </mxGeometry>
                </mxCell>
                <mxCell id="uHXM47nCu-cVry_dLeUl-27" style="edgeStyle=none;html=1;entryX=0.006;entryY=0.665;entryDx=0;entryDy=0;entryPerimeter=0;fontSize=25;strokeWidth=4;endSize=25;" parent="uHXM47nCu-cVry_dLeUl-7" source="uHXM47nCu-cVry_dLeUl-10" target="uHXM47nCu-cVry_dLeUl-24" edge="1">
                    <mxGeometry relative="1" as="geometry"/>
                </mxCell>
                <mxCell id="uHXM47nCu-cVry_dLeUl-28" style="edgeStyle=none;html=1;exitX=1;exitY=0;exitDx=0;exitDy=0;exitPerimeter=0;entryX=0;entryY=0.5;entryDx=0;entryDy=0;entryPerimeter=0;strokeWidth=4;fontSize=25;endSize=25;" parent="uHXM47nCu-cVry_dLeUl-7" source="uHXM47nCu-cVry_dLeUl-10" target="uHXM47nCu-cVry_dLeUl-11" edge="1">
                    <mxGeometry relative="1" as="geometry">
                        <Array as="points">
                            <mxPoint x="690" y="386"/>
                            <mxPoint x="690" y="167"/>
                        </Array>
                    </mxGeometry>
                </mxCell>
                <mxCell id="uHXM47nCu-cVry_dLeUl-29" style="edgeStyle=none;html=1;exitX=1;exitY=1;exitDx=0;exitDy=0;exitPerimeter=0;entryX=0;entryY=0.5;entryDx=0;entryDy=0;entryPerimeter=0;strokeWidth=4;fontSize=25;endSize=25;" parent="uHXM47nCu-cVry_dLeUl-7" source="uHXM47nCu-cVry_dLeUl-10" target="uHXM47nCu-cVry_dLeUl-25" edge="1">
                    <mxGeometry relative="1" as="geometry">
                        <Array as="points">
                            <mxPoint x="683" y="619"/>
                            <mxPoint x="683" y="782"/>
                        </Array>
                    </mxGeometry>
                </mxCell>
                <mxCell id="uHXM47nCu-cVry_dLeUl-10" value="&lt;font size=&quot;1&quot; style=&quot;&quot;&gt;&lt;b style=&quot;font-size: 20px;&quot;&gt;AWS ECS Fargate&lt;br&gt;Apache Spark&lt;br&gt;&lt;/b&gt;&lt;/font&gt;" style="sketch=0;points=[[0,0,0],[0.25,0,0],[0.5,0,0],[0.75,0,0],[1,0,0],[0,1,0],[0.25,1,0],[0.5,1,0],[0.75,1,0],[1,1,0],[0,0.25,0],[0,0.5,0],[0,0.75,0],[1,0.25,0],[1,0.5,0],[1,0.75,0]];outlineConnect=0;fontColor=#232F3E;gradientColor=#F78E04;gradientDirection=north;fillColor=#D05C17;strokeColor=#ffffff;dashed=0;verticalLabelPosition=bottom;verticalAlign=top;align=center;html=1;fontSize=12;fontStyle=0;aspect=fixed;shape=mxgraph.aws4.resourceIcon;resIcon=mxgraph.aws4.fargate;strokeWidth=3;" parent="uHXM47nCu-cVry_dLeUl-7" vertex="1">
                    <mxGeometry x="318" y="386" width="233" height="233" as="geometry"/>
                </mxCell>
                <mxCell id="uHXM47nCu-cVry_dLeUl-11" value="&lt;font style=&quot;font-size: 25px;&quot;&gt;S3 Camada Bronze&lt;/font&gt;" style="sketch=0;points=[[0,0,0],[0.25,0,0],[0.5,0,0],[0.75,0,0],[1,0,0],[0,1,0],[0.25,1,0],[0.5,1,0],[0.75,1,0],[1,1,0],[0,0.25,0],[0,0.5,0],[0,0.75,0],[1,0.25,0],[1,0.5,0],[1,0.75,0]];outlineConnect=0;fontColor=#232F3E;gradientColor=#60A337;gradientDirection=north;fillColor=#277116;strokeColor=#ffffff;dashed=0;verticalLabelPosition=bottom;verticalAlign=top;align=center;html=1;fontSize=12;fontStyle=0;aspect=fixed;shape=mxgraph.aws4.resourceIcon;resIcon=mxgraph.aws4.s3;strokeWidth=3;" parent="uHXM47nCu-cVry_dLeUl-7" vertex="1">
                    <mxGeometry x="953" y="72" width="198" height="198" as="geometry"/>
                </mxCell>
                <mxCell id="uHXM47nCu-cVry_dLeUl-16" value="Tarefa Agendada ou orquestrada" style="fillColor=#000000;verticalLabelPosition=bottom;sketch=0;html=1;strokeColor=#ffffff;verticalAlign=top;align=center;points=[[0.145,0.145,0],[0.5,0,0],[0.855,0.145,0],[1,0.5,0],[0.855,0.855,0],[0.5,1,0],[0.145,0.855,0],[0,0.5,0]];pointerEvents=1;shape=mxgraph.cisco_safe.compositeIcon;bgIcon=ellipse;resIcon=mxgraph.cisco_safe.capability.time_synchronization;strokeWidth=3;fontSize=18;" parent="uHXM47nCu-cVry_dLeUl-7" vertex="1">
                    <mxGeometry x="106" y="664" width="80" height="67" as="geometry"/>
                </mxCell>
                <mxCell id="uHXM47nCu-cVry_dLeUl-24" value="&lt;font style=&quot;font-size: 25px;&quot;&gt;S3 Camada Silver&lt;/font&gt;" style="sketch=0;points=[[0,0,0],[0.25,0,0],[0.5,0,0],[0.75,0,0],[1,0,0],[0,1,0],[0.25,1,0],[0.5,1,0],[0.75,1,0],[1,1,0],[0,0.25,0],[0,0.5,0],[0,0.75,0],[1,0.25,0],[1,0.5,0],[1,0.75,0]];outlineConnect=0;fontColor=#232F3E;gradientColor=#60A337;gradientDirection=north;fillColor=#277116;strokeColor=#ffffff;dashed=0;verticalLabelPosition=bottom;verticalAlign=top;align=center;html=1;fontSize=12;fontStyle=0;aspect=fixed;shape=mxgraph.aws4.resourceIcon;resIcon=mxgraph.aws4.s3;strokeWidth=3;" parent="uHXM47nCu-cVry_dLeUl-7" vertex="1">
                    <mxGeometry x="958" y="374" width="198" height="198" as="geometry"/>
                </mxCell>
                <mxCell id="uHXM47nCu-cVry_dLeUl-25" value="&lt;font style=&quot;font-size: 25px;&quot;&gt;S3 Camada Gold&lt;/font&gt;" style="sketch=0;points=[[0,0,0],[0.25,0,0],[0.5,0,0],[0.75,0,0],[1,0,0],[0,1,0],[0.25,1,0],[0.5,1,0],[0.75,1,0],[1,1,0],[0,0.25,0],[0,0.5,0],[0,0.75,0],[1,0.25,0],[1,0.5,0],[1,0.75,0]];outlineConnect=0;fontColor=#232F3E;gradientColor=#60A337;gradientDirection=north;fillColor=#277116;strokeColor=#ffffff;dashed=0;verticalLabelPosition=bottom;verticalAlign=top;align=center;html=1;fontSize=12;fontStyle=0;aspect=fixed;shape=mxgraph.aws4.resourceIcon;resIcon=mxgraph.aws4.s3;strokeWidth=3;" parent="uHXM47nCu-cVry_dLeUl-7" vertex="1">
                    <mxGeometry x="959" y="683" width="198" height="198" as="geometry"/>
                </mxCell>
                <mxCell id="uHXM47nCu-cVry_dLeUl-26" value="" style="shape=image;verticalLabelPosition=bottom;verticalAlign=top;imageAspect=0;image=data:image/png,iVBORw0KGgoAAAANSUhEUgAAATgAAACiCAMAAADiKyHJAAAA1VBMVEX///88Oj7iWhw5NzsmIykiHyU2NDgsKS7gSwAoJSsqJyw0MTYmJCnhUQDhTwAxLjP4+PjiVhNvbnDf3t+/vr+OjY/hVQ/r6+vV1dXu7u709PR5eHo/PUGFhIZlZGa2tbZdW16Uk5WdnJ5SUFPGxsfnfVbzxLXZ2dlGREhWVViioaNsa22ura65ubqZmJqIh4n1zsHmckXjYCX54NfsnYLwsZ3upY3649zyvKv31cr88u7qjm7wtKDohmLmdUrlbDvkZS8UDxjohGDrlnrfQAAAAAoXExv0Xyg7AAAW0klEQVR4nO1dCVviSBMmdg5IgAQ5BbmjBMRjnPFinNEZd/z/P2k7d1V358ALFd/ne751Q47uSnUdb1VnC4UtxOr24Pz81/Wmh/HhcFus1HZ2atXK4aZH8rHwUNwJULzc9Fg+Ei4juVHJXWx6NB8HN0BuVHJnmx7Ph0FrB6Gy2vSAPgguqlhwrb+bHtEHQWWHwddizYXrKiu4nZ1Nj+lD4KDGya3yFZNkwxIo3E7xatPDev+4EQmu9nvTw3r/uOB8g6dyX6lXFn62RILbqWx6XO8ed7xv8AT3Y9MDe+ewhCv1yz9k4qqYILjat00P7X3jDDhVbO2KX6xmGi7jpdp6uMdmztr04N4z/sZqVj37jtZt5SHz6tXZ5cFOpfb78vsbDPV94Ry5AxybFNPFcXN5V6y6jPtOrVI82DL1XAETV6T/inxs7S7xuu8XBxVfaKF63r/doN8DAPnriQlTJVWhf7i6/lUrVtjwb8sCPyCo1k/3AI6HOf+wOnw4L1aFycZ25Ro/YhlUbt0Daf7hzDVq4gzNXelbxbgDBaveeEcekJmL8ofvF7+LVW59bq/gqvzEef9wdf23yBs1FtWNTuSNAROucOKHyD+0Dh5qKesTiPhgozN5Y4CEK574N6RbtRxC8+S+VQweYDHjcCIx709VuPsNTuPtATIFoDE/kqimFBRvNjiNtwdMuEB+lXN1AlSz89pPBegbQDRxuO5ibW0ZeQet2Tn84Xda7EFT+so3fGRnq2I4FHn4CVeIZF64Uq3+vrhhaZRto9kBi1nBbXFC/9CqFu8ub9z0FffpbJljoPgLEi6m0YYVHBXa+cNhsCLPcEPd7duPfMMA0mEzTegfXKP28zpejpgI2DaHWrAOYYrQYn8OfqRGrXhwgahgzHZWtirVKqyuD4pVIDe+GOj6B9+osb/cQ5e7VRnD1cU3JDVX4Xj+9sd/9w9ngjDjADnU1tYEIt8v7wUUkYgkF4vkATvULSlv3fw4FxNr1bwRxS12qFtBiZw91IpJWWhe+hYHItUt6Nw8+1lNoyPPs+/gAmcUlZ/ZV3xorA7/ZpC4OenbVQsu89bnbtv0Ao8Mnqj1X759SDgQOf/MxfuzAzbw4JStUjz/kc81HKDIt/qJA5Gz+2Km1O5zN8z82JbMfnWQLrZatfjtIj8hdI0Dkc/bPXdVSbNsNJv6fb3OYsNbDKuft1NklWLbqNT+Hq5nophA5BPvk/uWpG+tauXn2rvcVjsoEEnu//rwOBOS39QZ7OR0oRh38DXUap/YoQr2fazlQjF+iTtxPiPOebndreFCMS5xIPKpt7PyxZbKk0sDuMxafasSQ7vdxrmJ1aXg0hWLO8+9ttOpM/cS3XWvHSA+k9e4nUrx59OCVtSl+WYbR8Z/5D9NdERVXJT6XXR0rsj/GuiINSGKXlJ0Ozpi/1P+BX8+Kv/i46oiu1CU+OIHkVNtFc9vn2DXb/HOzPVv8BTsKZKkDuCRrix5MFWoYDY9ap7A82zNJO552nF0aGGqI/+vuiyV9sLDlubfMfzRhdirumr3a321QxHhGy3VviFJRIJHOiWJKEqZYDlNqZDUI3BgqdAzZEMrKZ3oWM8wAuW1NUKiw1SKRKNQTsH1CbsCPbW7WFPtmF7D9S5+GtoKFZtUBsanMNSIY3XrDiGj+GCDShMJ2KYXlib0utk0vnhKtKH/18QEatzQyH7BooBP/p7SOLO22iE+qfoW38LpGWSwLwEzVSg0DbVH/zE2yDQ+uE/UAZH0aPUVqBTNwC9E8qBLshSoX081xtG5Y1Pd5R99kdZytKba4YX/Bl90mSmS3BkQcwGOjVTvX49UsDKXmqS0qeA64EC5U2BAl2Ro/gkBpu9IRQ8I8ZDerEXVLn9Ahtpbn/GRiLq9XIzHJ8tGPf28gUrV6tQweuCYRMzhXnuiSdoyOqYS45QuRDM6MifI4PloaNQMDjyoUnkWHTckMh2NRtNj5vyL/9LZuFZx5zKn8jCfX3qSys0mI0XWNNOFJiu7dvKp1FXKdmFpEic+1nbdpyybEjGiYxNTetxzTX8/OGDp0JmGODGpA/EhSXq0gvfK1P9QKJyK3pyLPvEAJXCXN5lAXydprd8uYi0d2Y8SQqg6WSadPfUcQIdKIbbbtu5dRkwj0tauJrkWa2FGVq9dBss2wpEqGZoH6kjid0Hv7znVf13uisJtK5Vd8tnIPLUD7GvWzlYn7phZEM2ZCc92XeV8d5da/XK8pBempJqmMZ3Ew21S9Rvs7o6IJAdHqFpqvCY7xGgOXRwPCHAHS41MbRfCQVzfJfHAxQNvxVm7DeGFDH7BiLr1K88lEWzJ5KTmi04RGWfqKulPqkpQENt3FySKHKh6hefJoSMtSdGyjdDVoxeA3MGpwZ8LcXMgqkO3gq86NtTHDEPt4+rpKtdXeG0LIQuGTj2jt4Q0VQKxA3QBPnpGsAKJpIUvf6RKJV+N4yiORs7hktegQo64O7K4eiiySX/xl6du3V2ZlAVLXABEVK2xj6Y7TVA3H1qPu8KgFu7YW1hqHK1aJmu96grVLu88h0TJRINqobast+1efF83cvb/onmcHKuJLBkndqPRSPFShdVFBRq7SsWPRIY6TWzMfAJYYZXLG0G3iZomN+rlTpkrqDFTZuFfWni0XoZhrgtq8k0r+Cu2XAPTc756OV6SzWhJUt2LZ+u6aVdjFf7VIRxGtcJa0feK7VHJNRLznCJAfcF5SZI9I3mZBlCG6IquTIwgFGuUiRKuuEZJVdF5nUeiTfw/aQYQycMalYhnPWPrODe0QIpLTY1na8vEgy60sxCBsauc+9qyUDxdSDeQAKsnfErTkjL0zbNzyMhOnGnobOv0z3B5LhwHa8budDoNLNexM92P7c1wLiuK1AeZanSXpuM0wXkjD1M+fuFAjV216Ff26vOAUzEneSTg4hKpXK6CzcjIlptE9l+4mcJq5zPb62B16/vDEzlUBUGknTQeXHnI0Rs31nLIjSq9INV+n5g58YwEkTY1BsLL0PaGWnZrWEfJJTdJ+jPMvNe7QBMGVnKbP6Hvuu+ruwu2JoYZzcwuiH3GMRBT0zWTs3pEGWfd6X2g8wiHbfIG5qTssTBFd38Dqvhfr8VonuAAjsjTScO2FwMFi041cljnd4EhtDxkn/t9qfhq6JLI7o6aHzeRbM/XYDRd8gHAcMJAsz6AA9AHL2/JXwlIE3BBxEWDWiYvMQlzhUq1ehD4FEyiV1O9IVY4Az5nIsfLNLdT3zx6cKkYTeZXz6J7qTDYeO72Tnir9i4/o6lCCwfpbopFKXj6h1mmLuZwRix5XPcCb496PcNsnrvP5uIH3m+Zwmh20Epl+ey+6S/TD9UOK0HBMfTVns82egrC71qtMT13aSq3gCuVt6TU4yaQSu8WXawKiEu09oNl7LnVDP54x/sCWBKQQeAtaUcx1NzL1HqOYlrtjn18fNzoCOKutVBHgishnzYNZ+sxf9/SaxY7qV8bcVJMnItenmXatie9qaHpuqY5vYm9tvzaw76jyyWPtdNlfdpc/xYxbBSNEPjTIEotPWZQ2EeB7V5y9QFnW3yYnT2Dztgp6WboY4hqlvTB8RoTby+msobYGWLoZj8Xb9u2lyfjpo9x0zdnS2R8oCr04l+81P828wMkKd/2xlGcqPKbiu5iv8xTUqpmjnOGfZ2jsimitAxlkCW6vYUja6ZphFB8wTUhY6ECrqapMxMVfgcdC+4+8ekM75vNeqGhN3XhrN1XquW5U2ekJBJaqsJypwhWs8Q8O6hYHME7ggaWBdQRj2xeZX5/JIXPnDITV9IYagYn5TQ6Kqk4FmNvN1ls3qz3k+/QMDmqX/HtA7LaWsRLHCMqw/Q0MWtbDvPVDYQeO/RSXq9mq6lVisTiWIRluti8OyTxMad8ZSno6bHQy4zaWmwkN2PkHVy5e6nTPESKV12wsyckn2FPK4pFw04xmdagnHk91SKx7AcCBjHojmqj24a09UyGR43YZawOf6Vs2Ez5MCa+owuVj0l4tJ0MdfNhjpJuUCd5WGc6c1GSfCR6eOAHOjo8GHRStJE5VB2sG4kbq1M3Jqmc4hhcGMyho+UoUqRJzi5l66sPhWdrm0LGOiguHKMwzi84dvex3HiPf3Vxxxu8ampBf8y/PTOjEldo5Fimqfdq5CWdKbhmG1t8ceAHJohUGnnHpvA1E2mvIMLq+gAv2mL6Duk2t1bpGNJLasdrTFuSBfz+OnKTiIkVxCLitxYUF/rQBPi1QVSLIkay91ud/awUK+4+6VqrWsuq1vQFBqOUxpLbj/wF7ogStFDhBtoR3kBVDYO3G+7scSvdJMG6BlnPiCOVdlEqoWXE1d8vft5XKncP2XXVrmgg5ZPE82e8uhBTV0r7jqqU+VIFahb3INBxVVOMQa/f781lQSKBYksrySsFrVDI57gp6SkyekquVC4fhAtHTorButzEDNk5sX27UV8OFM5bykxMzRaHJFPePY7UcjY2uAgJNC5i4y95fVAeDJ8S6yKnWuoAGtsF3534HIgWq8ibeRgxOmWU+ii+r/dYz8FwLj3maYY2YbzcQmbuUAJF5V30fCJPd3s+fOtSx3Kyhkgr1smL8mAuiqkUYQl8gl84UXq8CZOY28nwNTdk5gZ9Pjio7+O3A0WP7q1O2aTMRhpHbCzHF5ZbweJWj/cYQSsjfqGSaoiGYo2wUsHmagtzKQlFxy4zoLhvBRlIAX+4xI9G/yZWhWehLWhhFb6gOVIFc55AHjHNKKBF7RQX1aYJN2jr+AZR/oA0SuZJgHFyQpJkfJ4FgasUDaxRQtPhW+4DMCpcit5AG+fayb1rQ7zkItWC1WbkNAJwpEUst9cpnQjDcaIzBgzJI6AYhMD9KDEr1kMso2DiEeZY9KFmQppSFWQlTlJOIycHWM/DUCg5gpbSMVSD9LYvLKEw+8UKp6UxWDYbV/iANKVow01STmKyhemXw0KQe0kqWkyI9VRSeUpmTQZHUWIsp9vqfSEhCY8KWt/2EgQncCMvh3FJ8EQNvClkCLNe4QAaGz1QXBjL8LVIZjhQZyPvAN+uoPVtlkTy6S8diUD0RXQNiLVRGUTP4DtRXBDkkTZ8NVnJDyLWwhYQFI0IWt8aST2SRHvNbgQRQQhcF0zBzSxbi+rCwaYGyFxkKVzBgvodNaRDaSr8RRyhHd8hm2V8BkTNwHoY/swy3jYDOO/AtiONzVw70EGGgoOZqqD1DZNKGKXXCOMiTPkwKBoffJsc5SG4FZi3LyWUdmTv24AhWbhUIack2LmJLSsD+QWJEQ5dh39yGL7C9Dprl1ABz9vXOBi85ih9nwLtCS0DjHIMQd0VB96YInxVz1poC2oQQZwJl04pq2aKIy6/Zwg6F+GmZwzoVsMXBWlK0cvDcWIDS+4VY7kCl8a7b8rfK2PBH3L4KChn3yLCdSTYdskC9oqG2+eg7RfcAnOk8p6No5MXZ0cQ+OTLNw4zEEuI7DILeBs/jltTZaHGBSEb8rRl3mZ1UChKve4uchbEeNUOySUbRPqmHYZIOcwFDEWDZis4iWyvjDxkcDqKcQT7KVHDuaR6u7MhjERa4kXQY3y6n+9Ahwa/KZKAJef/LKgOOQQHnVGQeqAEVucv4RvOj7HlKb9qTMJWBXxDDr1kjr2MIy4bR+ssx1KF8UwQvMC3IdJ63HDuxX5HWAv4mttLwhbRiHAe2Tauzce/SHA5nIPANIwzSCW+NljYw4s1V4PH04FZLX8E6JCe1TeIFo1PjlhwCpkpW6EL5BxGRCiUFNwBBaGBJx5i7kJ7oY1VYjeDCWjPxnWRschKmFD1M5w27KPPdi8wLgqFBLVe41vAkE5H1oDJJl6mQjgUVWRY7+RJaYZeXNa+4ybiRgIpI1I30ztAexEKCW2S4t8d03Ae9IgwHF3ePrY0NBxdvOax4LyvdTGETXoEjJi7iF9J3yvEAjqCQEhIBGVe8qjhPP5QwBKb7Gfvu+3M3V6rsmjRIQvltzoyhE1qymThzS1hCIBvoYibhoRjCNQT0ZSC/ZS44Tzmw5giuvysfbf1gV8vF/IciCP3TdQpE9yVU+aNiojxVgMc16cQcpabE0D9DISEYnCJvy6p4bzNhPQCZc2Ldi9qwBWoHGJqg3XCEjYpxBJm9fQ45sRLRk/akWg5ruCARQyjnyxiCzWcg6/IsIv1yTFJ91SO58ZXJ/FKk/wEj2+VSWg/3Jvi/BDcnil6JlSI684f94kwZBv5v/QzSCW0UBB5ggvpkvakWqF1UkJT4ySAn+JbcUF3leDrNwV3OTHSASkCE1hLws3qy7Lqxn0ojAt8+CC9NojHiLxunWEu0kt0CRixBQ0NvTy248VPUkSNm+aU4yfaR4w5wRwYuwlHm7N36Mx1X8Fg+BMKCcblGh9H4bgDE74LpllIYCEzwXaY0UEM4m/HnjBdWsHb7ujsRZLXaoRGV++zWxcYa7JkH02UXfDuu8NpmQSPhKFFICQLjqHEx7F4jBpObpidMEZWn7MIvAzUUr9Dn9O1TzV2SQbNB7y0/efLo+XMs4Hd2WIus6USwhbreX5ZLe83jzv1eqcxnpf83h9PwaAjCISEa4O8V0ehJqtT7GLNKIcLwUYWngR0jZCSzv0S+sSkzluJmGVt33H2NXZrlQuOcm0IVjwxNL1c1rXoeq9CDwcZCAmFM2qBAxojx3wxnX3pDRhi1PPsaQmGFy61lLqb/wlL0XGB2zxKu08AT8GgIwiI22EGlSpoOIdg+nFyFOo4pBXRMKKMciSUTMbFguyim/3dMP+hYJqhkGAuIaqSYVKJixLZVjZt/S9b5P4oULzUcosaXCwMlnI82+0fhxxUWEBFhVZBJIPbdHgbxn5D6gkxCUuOJ80gUhkrqScjGY8JLHXm7hAvT4COIBQSZFcEtUFcXxB9jIpZrE+ISfieexFAL54ojEufPdukH0PYiQfgrULoCEIhwYRGRCrh2qDA9rOLNQr928PjxvGwMPO2xKd+VDJhPxQC7P1kY/4smE5Kv0HGVjAvVYGOIBASolIF/Qx4jMJKILtxLWQj24uxslwUmu73ymb/RimCKywyFwwKdBBBl7XDl4a1qbvCC7PUPZeegiFSyRcSCgZkXi74Y1TiNlm209UMo8G2y941m/SqfjNVcIWTdMlpWGXgq9Jn41SVIbqTxU5bPXYPCICnYNAKB0KCGiWqFiF1EnXkFHjXFHFbdbfY2BwOZoX9TkYJb5kye4P9CBV0aEq3MJvqSRcTTc3DE9pOWXwHoj26WjDiSSVUGxRMLhfBfMqslvDrDb7glvZpY5EluELdEc+emEqfzWdgpuf18zWcsiBCoZdyH8FPFN1c4VyUairO0tMvmsmEKAcTaWpqBBGnlUwqQbChetAYGgiuYEy7dnbReCmV2NkTo0wmfBoINDwMR+1dWYfRLM2clP3xOj1o9ZOpopuG6n2uVjXMkjJahNc3AIKFPz7ajXAk6lSSyzH+JbnGzp8Sguyzy/U/9P9OF4XxoGDnoTntnimDoevydCyyT5Aciylpy27OTaWkU5QVc94frp/97dmL3mDqONPRUXPZeV75qY6QeK92x8NsNvP/8P8LV5Y77Xq70KX/yxkXz5ZNd+jOdECHnlBnrsOoCsfse7OObXfqGZWXbQUkbASF4C8kQVDj/EIenPKtal/IA1h3e9WdFp8NkBwj2ad/IQSMRkabHswHAiLH8v73Eb6A6245Nih8IcSQr3F+IQ8mfI3zC3kACRtBIfgLSYB1t9fdnPLJAKokCZT0F0SAzdwJlPQXRKg/Rh8pNvRX3br4yVA/bUY43V6n+j9cybTPtiA07AAAAABJRU5ErkJggg==;fontSize=25;" parent="uHXM47nCu-cVry_dLeUl-7" vertex="1">
                    <mxGeometry x="322" y="270" width="214" height="107" as="geometry"/>
                </mxCell>
                <mxCell id="uHXM47nCu-cVry_dLeUl-30" value="" style="shape=image;verticalLabelPosition=bottom;verticalAlign=top;imageAspect=0;image=data:image/png,iVBORw0KGgoAAAANSUhEUgAAAPkAAADLCAMAAACbI8UEAAAArlBMVEX///8ArdQ2NjYAq9MArdMyMjLc3Nz//v/V1dU0MjNEQ0M3NTb4+PgwMDApKSk1NTWWlpa/v7+rq6uoqKiNjY16enplZWXk5OQ+PD1RUVEAqdPGxsa1tbX5/v5LS0uioqPx+/3v7++BgYElJSXo+Ptubm7d9PnOzs7q6upiyeM1u9uX2+yv5PDD7fV91Olbx+Gf4O696fMsuNqH1+pdXV3S8vdGwt5nx+McHBxoaGj8lbkSAAAQkklEQVR4nO1di2KquhIVA7WKQG1rVVot1kcVEREf5+7//7GbFxggQehD0LL22ftYgTArM5nMTAKt1SpUqFChQoUKFSpUqFChQoU/jQb8U7OcnetZ9Oe/BGspmUDeTIuW48KASt4BIEkScP+Ywmu1gy9h6vKhaEkuCqjmpSlhgOWwaGkuCEh8KwPKXHaKFueimB4pcUjdtv7SUF+FxCH13R+y97nPMvf/hpNDhj10AQipy3/Jya1lRuUI29pfiOMatSF0bzJj7RI4/pFIzjMlWWZVDsCqaJkugrktRXnDn/x50VJdAm5skCOY7h9wcgc5SRzqfVu0XL+OYRCwx5R+vHmlO/EZLdD6rYfvlg8knrnL4Nad3IqvcTSzuUXL9qs4+BJX5dDFAemmw/elUOU3XqPYAhFzFM8Ar2j5fgM4H7E2QuKYvG0VLOXvoNGo7VKJw0l9V7SQvwGo9KkvmMsJoLnf6Mw2dLnRW8TeN0UL+fOAKl/7Z4wdUV8XLegvYJiB+G3WKByTG8LEB/vt1SjmfgbeiPrNOTlePYJH3Lyt8L1RO0jZmN9cjUJQj+BSv60ahZOZtyyZ3g3V3i07K3NUfbdvyMntMts6Jn87Tm6eJYhhLf5mahTCeoQA5tIqWuSfwVpQjwCC72XpJvZRNGrTI3+UA3m34g4DmK7aVx++oy1/gnIrQMUnh3cMABncQo0CuTcuv42FIhyu0sEN7KNo1FA9gru2gFPxAy+RwYXYoiX/NtbcRRU4lOnqKSeTQYvr1x++D4/cUQ7CktvUFriBa69RcF2YhINzCo9L/OprFHO+RgE4WsEpoiL8lRdid9BP80a5xIQqa4lzCjKL6w3fG7WDaLE8soQmKNdcs5Pjz9YkJWFScH6JDoYzm6vdEesIqq1gFWXk8cJbGL1f7RLjlD+jJaNyS3Ciea3hu2ABEYDoZk92t3tM61dao+AGpnivZ6zE2EAOgT/7kfD9yga70L3Fk5EGJDbnTX6o+r5BvXRlzLf8CjvgTNPoSSZuL8Emrq9GAeNx/lYg34qdiTWa2RuWHx43J4d/BTOVYwqor67M2nnRiQzdmInqEVxs+Hn81dUouPsjYKZurkUqXAu2yoHr2gYtcG+pE/SOq/RodlNq4Ed0NoA/S6VlnpYvmNRPGW35wXVvaEZLDcQdrqHAHkQ1iuvwcsIZzU4dstZR4N+vZolx+NWEm/u4g4RWmy4j+Ldx4KycIE7nt/TyAl5UiZXX12DtjaFwNSk9HGvQRVcOeyCMAkoFhz8tn085IfWVaKH9GmoUAvcmZyqgDwXVd9O/gvB9xy2l4kd0zoxVdNiReZM6/LL8S4xzYTyS6XK0LTjZcSBYhisx4Iwmc31UVsnngkK1uSm5exc9jmbusgrOrd6hVclyh++iKirI7qH4S4ylf1QbB+y8taIcs9KW0wQOhDKbzWWBhRJt/xLXI3iAdsPzkuVdYmykbP/K5Zj55Wo4tZX0gTb0vAbf1PMuGKCMh/+o9tmQoCAIVsKh7S6nVh6Rpz63OCOfyXKLg2j3A+TuH3dODte8EjVUzvB9mra7FQDgH71DxhUTZD3cgAg5ufIZfPqGZkjEBP7Sy6b5tWj9uYw1inOPo6H9gEjz7jzLYBUtMZYxfBdEbyedU9lNf5lBetGjTvkig4tgm3knNxzCGbh7/Fy3bDUKtKFZJClXc7J7zlVZoh2CiRXJgrHjF9C4GpfwHsiVld6icJMNep1cefz7PIU2tzYlA7BJN3nxzoMyObm0B6xBwD1GRAbyKtXL4/SH021mturOZbCVzwxyQN4eEmMPNqnZl+gVBWZ5dggKNjRjzeKEk7zUFkhMcRL3FbDFlou9JndhskQ1Co9fNQQIsuz7NvyDIKMvAr3jGgaQvRSLdwSpX2kKsWw9gg5pSBBSProrZ7s+zKcYh8PW2S1tn9SVAd5CgR7jEVMfCpK/0tQo3EikiVj7m523nlu8k4fTtefaKIhHeSc6PeXhtIMvWLVwh2WY1w5IfXgIyzgwX67WUwsfacTEC34eWgdv6ZNBDP8uxcNW5ORKsQ0a1yOIBwP2f5D16VAjGnI0Ih/mjutTzyeOxfmFWBmvxBeudRxryZIp+UsnkoaJJQtUP1/ZyOPLKe/KEuy+KEWNAi1/Atl211biUJR73PYRhtuNDLM3scMabvg1OakEm8XQPoGlM03s4sUPKEZ2NHONwNouj6JBiy7YcmszyMn9jPjfwXRLu5+n06GFMQw6Jn7O+cHqct/GAn1qScL3pEqtg+Pt3OUGw4Uz+1pon6n0RasXpdxHYUG/ffRlEwIQ4I+yvVmtWSfIG/lJePzleFSjKNy9E5w8Np6rE7kZidxtOAPka1e0DVpC26DLw33u2VDBAn9MQlYTHFeZqpABRFtJy/JAG+r9g+vL0ZQsARl7J9/NMSmlPR1RAp030NxM358g04GYQt+Uj46VtW3eBjt8i3K8dGftpr7xLyE1kDfbrBW1nSl4NARHAsXqfe5KZq6Xxkgy9PvHbbblJuso6D3o5Aq29zV6SVCOsjMRHPqDs9VnAu5iJUg+7XhpWC5J1nLyRiCV97MQOTlJLtTJzfO+KSfaA7aXweRFb1krcImxUdv6IJdvSwgPuZ8vKYoe9Sxws5iDXqGRd4jHqEPu52xeuK5c1Mw2XIGgtPxloLgWjndOgh+iIWQuFfV7PXj7OuKxKwj/ETJHJ8gbQVBLf22PiPnlH/CBAg3PLSTKhHO20QAVf1xtp1b0HjWU+3kp78Iu5J1qO+6rMQhbWpREL4HK+NpPlM7AVHa5cg6hxxtO185u46d0byE+bsd7IxQghNHaim/bdrC0ktUH4s7y/eNxiXA8kqvFl8tSASsuXnDviNymLNsb1wsWVw6HNVlakQSPZLEXk7ZkGQQFjeAVcmnT5uWZRx+sw4UHtKDkrafDpKMaTrfuUWbX1H4I4PIF6GjqiAsOLjNAObDWK/u85nNCvvDTDg38XqSABCqZb7yDdf466+DanErVd3DpZ/Mt8tJebOOmvCS7GxFS4290cOodf5L4xWtSO4CfHURj+7jKOaEOt8vk/okvgMyfF1Y5LQqiLY0o6MydKK5dwSNOeclf+tet4pefQdHt1Zc7fP4j3C/+e2Zd/LzFJs/G7STmO9uEY+YbaR4w7Qv/7kkHDe/l1vrOTbGzW9lf03uY41x618gRevOf2bQAHT3g73pL1TX510/fT/cb8JbbH7un5R1lAPLZPMkAN4eiC87fAF5StJxN3moWtJMf7Px84v5ca3h1ZpmHe7BIcb0aZ3HY4aiW//RKSBnZuQn8HYrURZswrg9T5yjTdEawSYKGjF6uhdjrAFQ89XZyXNnkrVP+Mm+kfA0gv3tu6yLy0WQOQAuHhm4vPbSt8kZMnANr7uz+Q0UoiRZmJN8/urstfzPprWE4nR+2jrPa7TzHORzm1u2N7Oy4XSPnoxH7/82D7qCMfVOhQoUKFSpUOI/23f0Jd4vIofskxujAgpzc5rYRIDja7t1B9No1EcjFPdHhxV2v14sKVhtHbwHv0EMnpcmcxGddCVEfvTx3TiJ2+koc+jtqvauhz637sI3kiYrySg8+jxAGbyJm4wFqTdsv+Id7e3R5axbpmWddUQyl3iE/vQ3wLUZ92ERHS8r8yG+5o6n1EIqmTwaPAfcnrR6H/oyYvyjos/EatqEkTqxrlOr9RDEgtJGg52u9voHuPBAo/WGiYvGf2S+7uqrWVY1Q6tQ1eIOm0kSnPOpJmR9EzGMnNrVnKuRTU8ScXHNiboiZP1BR9I6QuZrCfLEnQigtdrhA5vW62sTMFyPU72pd7465zFUxczV6IhTyZfxt5ipl3htQe9D+CZSezvwpEG/CDheG+XiGuKqqNsDtf4M5akX/aOdjLrb2p+CQ0f/8AvP2vknF02ZMzzHMH4iQzRZpnsNcS2du6AiagZVe154Y5k39hP898Ji/avigouKmFPzDBFt3exR2itb9AvOOXg8VwwyXE/NAfI0excxVKgOV+T2NudF6f3x8fJj1SZcZrXHInByieLrjMR+/4WNEP8qAnI9V9DoJ+96o8+05jXn7I1AhNGem50LmdwMNd7cWOEDCPJCBQOA7CXOtSxxIb0Z0NHkMmesfCXnizCnetXBABF3SZfynYLylMb9vhR4E6jGcRQPmb+1/GrHRj8D/EeZJmc8yry0IKw05yvzM1Rjz+xYz4BT+lJ3G/IGdeCanngt0/k5MQhuELZNx/hXmcMxi6x/1AubK6PEtwGs7nXlc5x90FBLNKdyQIoX5oqXQgUJ6LjwFM6+rAxwKQAlPzjOw9rjMGZi3R2i0qupn6OEU4r90TdP792eZqwzzRd9Ao9DoEwm1fzwhUpi/TajXwQ7EIH73xLyu4GZD7xYyP8msQ5nvMjKvzTQyhjizGp2Z0pirLPOnCfqirrx94OFoaPEr0pmPyX2U/WeLWN8gKMxR5kQohfUfiVnNqN8nGhYw/8CaU56+zxxJjogPFq91QxUNPzFzGiBBz0gcpaEHd2SZK102RPouc/VHmL+hk1Qk+RgbUp1JcjIwb1O+xl3ttU/6IJCSZX4aA99lPiMmxlq7QVwU1Fsu5qQlQ4MD7Y24Ol44JWR+T73D7NQJQc9FrH3EykGYq6oaTIfZmQdRF+PhaFswOxrd5WB+rxHJX9rtNqEHvXByYhMyf9YDnbZrj8TXBQELyxw2yvgwqnPoElWKUVYP19FJR55mtUHnNQDpvmzMG1RytfXR7XbpzMTJlUXMg1zH2H90P17o59aCZa6Rb7X9Sa2EubaPy3yeeW9PI5n212K4E/MwSzM0CBLSQwNIZGwi5mGuo8DLg8+TR5b5jCSoME8LL84fw81IjPJJiJOckDBPZhoB83jGHWV+qmugcRLaZmJiEzBv7zkJYNBzhLny9omGImxe/xdcnZu50Xp+eHj42PeJuEokY0GHAtyfmBsvzPevcebj0WlmUEPiKuNKI8yNepdp7Q7JxSl3wPM6IXOUsbz1m9TgxwxzOPSfo62JmUORcJRG70aSa+rhDI3J+Nj8nEkFJ/8aMeadiUpZU2C9w//Hxx11fuxdJu/Qm5+mJ3x1oPRZhDm0LOpAuguGeVTm9PxcZRRTT1QmVOrb1UhlgqGlzGI6h1kaJdRUFPif0iTXJCsklDnbnvZe++zTYD2AFoTw9xHm7WeFGhMZr6f5POzxzHU4KOwsWo1iupytQLLQAuZB3P7ZJxf1Hzokceh0yezYjA9olnnQ2nvtmZrVPkw96GyLm2dqMu3nCdHN5Lld+1YF0tCMUwUyIZOIeajzIFfDkkPthYlzbbEnNZt4xtbrJwa09tRrGSQAODnENyKNgXoODQWVtjSeUQbKR07mejMEtCldmYU3e9KaESiGMaHWbkDzZaHN0DjXYQvklDtUBYY/TZhR/aQb6LvQGQXM69GmYBP60/sEfVD0/ckfjv/p6EQFEelODKNp0KrzYqY3cRP/e4chjx4XzRAx/2wxGLw8fDIrDaNWHH280vDRT3yP+vvtdMorPYOdERcv5LtR1NzH++Rd3p7p9WzBtXO61QM5TKfVHm24BfP0TkI02BqfeQ0v/hD0xsJDAXC/jJPfoyvbzCk95nPIkd4lJsCCc5c279ReeKt29GibkS7Z2J2oNFGhQoUKFSpUqFChQrnxfyA/ggZHox1AAAAAAElFTkSuQmCC;fontSize=25;" parent="uHXM47nCu-cVry_dLeUl-7" vertex="1">
                    <mxGeometry x="730" y="518" width="132" height="128" as="geometry"/>
                </mxCell>
                <mxCell id="uHXM47nCu-cVry_dLeUl-31" value="" style="shape=image;verticalLabelPosition=bottom;verticalAlign=top;imageAspect=0;image=data:image/png,iVBORw0KGgoAAAANSUhEUgAAAPkAAADLCAMAAACbI8UEAAAArlBMVEX///8ArdQ2NjYAq9MArdMyMjLc3Nz//v/V1dU0MjNEQ0M3NTb4+PgwMDApKSk1NTWWlpa/v7+rq6uoqKiNjY16enplZWXk5OQ+PD1RUVEAqdPGxsa1tbX5/v5LS0uioqPx+/3v7++BgYElJSXo+Ptubm7d9PnOzs7q6upiyeM1u9uX2+yv5PDD7fV91Olbx+Gf4O696fMsuNqH1+pdXV3S8vdGwt5nx+McHBxoaGj8lbkSAAAQkklEQVR4nO1di2KquhIVA7WKQG1rVVot1kcVEREf5+7//7GbFxggQehD0LL22ftYgTArM5nMTAKt1SpUqFChQoUKFSpUqFChQoU/jQb8U7OcnetZ9Oe/BGspmUDeTIuW48KASt4BIEkScP+Ywmu1gy9h6vKhaEkuCqjmpSlhgOWwaGkuCEh8KwPKXHaKFueimB4pcUjdtv7SUF+FxCH13R+y97nPMvf/hpNDhj10AQipy3/Jya1lRuUI29pfiOMatSF0bzJj7RI4/pFIzjMlWWZVDsCqaJkugrktRXnDn/x50VJdAm5skCOY7h9wcgc5SRzqfVu0XL+OYRCwx5R+vHmlO/EZLdD6rYfvlg8knrnL4Nad3IqvcTSzuUXL9qs4+BJX5dDFAemmw/elUOU3XqPYAhFzFM8Ar2j5fgM4H7E2QuKYvG0VLOXvoNGo7VKJw0l9V7SQvwGo9KkvmMsJoLnf6Mw2dLnRW8TeN0UL+fOAKl/7Z4wdUV8XLegvYJiB+G3WKByTG8LEB/vt1SjmfgbeiPrNOTlePYJH3Lyt8L1RO0jZmN9cjUJQj+BSv60ahZOZtyyZ3g3V3i07K3NUfbdvyMntMts6Jn87Tm6eJYhhLf5mahTCeoQA5tIqWuSfwVpQjwCC72XpJvZRNGrTI3+UA3m34g4DmK7aVx++oy1/gnIrQMUnh3cMABncQo0CuTcuv42FIhyu0sEN7KNo1FA9gru2gFPxAy+RwYXYoiX/NtbcRRU4lOnqKSeTQYvr1x++D4/cUQ7CktvUFriBa69RcF2YhINzCo9L/OprFHO+RgE4WsEpoiL8lRdid9BP80a5xIQqa4lzCjKL6w3fG7WDaLE8soQmKNdcs5Pjz9YkJWFScH6JDoYzm6vdEesIqq1gFWXk8cJbGL1f7RLjlD+jJaNyS3Ciea3hu2ABEYDoZk92t3tM61dao+AGpnivZ6zE2EAOgT/7kfD9yga70L3Fk5EGJDbnTX6o+r5BvXRlzLf8CjvgTNPoSSZuL8Emrq9GAeNx/lYg34qdiTWa2RuWHx43J4d/BTOVYwqor67M2nnRiQzdmInqEVxs+Hn81dUouPsjYKZurkUqXAu2yoHr2gYtcG+pE/SOq/RodlNq4Ed0NoA/S6VlnpYvmNRPGW35wXVvaEZLDcQdrqHAHkQ1iuvwcsIZzU4dstZR4N+vZolx+NWEm/u4g4RWmy4j+Ldx4KycIE7nt/TyAl5UiZXX12DtjaFwNSk9HGvQRVcOeyCMAkoFhz8tn085IfWVaKH9GmoUAvcmZyqgDwXVd9O/gvB9xy2l4kd0zoxVdNiReZM6/LL8S4xzYTyS6XK0LTjZcSBYhisx4Iwmc31UVsnngkK1uSm5exc9jmbusgrOrd6hVclyh++iKirI7qH4S4ylf1QbB+y8taIcs9KW0wQOhDKbzWWBhRJt/xLXI3iAdsPzkuVdYmykbP/K5Zj55Wo4tZX0gTb0vAbf1PMuGKCMh/+o9tmQoCAIVsKh7S6nVh6Rpz63OCOfyXKLg2j3A+TuH3dODte8EjVUzvB9mra7FQDgH71DxhUTZD3cgAg5ufIZfPqGZkjEBP7Sy6b5tWj9uYw1inOPo6H9gEjz7jzLYBUtMZYxfBdEbyedU9lNf5lBetGjTvkig4tgm3knNxzCGbh7/Fy3bDUKtKFZJClXc7J7zlVZoh2CiRXJgrHjF9C4GpfwHsiVld6icJMNep1cefz7PIU2tzYlA7BJN3nxzoMyObm0B6xBwD1GRAbyKtXL4/SH021mturOZbCVzwxyQN4eEmMPNqnZl+gVBWZ5dggKNjRjzeKEk7zUFkhMcRL3FbDFlou9JndhskQ1Co9fNQQIsuz7NvyDIKMvAr3jGgaQvRSLdwSpX2kKsWw9gg5pSBBSProrZ7s+zKcYh8PW2S1tn9SVAd5CgR7jEVMfCpK/0tQo3EikiVj7m523nlu8k4fTtefaKIhHeSc6PeXhtIMvWLVwh2WY1w5IfXgIyzgwX67WUwsfacTEC34eWgdv6ZNBDP8uxcNW5ORKsQ0a1yOIBwP2f5D16VAjGnI0Ih/mjutTzyeOxfmFWBmvxBeudRxryZIp+UsnkoaJJQtUP1/ZyOPLKe/KEuy+KEWNAi1/Atl211biUJR73PYRhtuNDLM3scMabvg1OakEm8XQPoGlM03s4sUPKEZ2NHONwNouj6JBiy7YcmszyMn9jPjfwXRLu5+n06GFMQw6Jn7O+cHqct/GAn1qScL3pEqtg+Pt3OUGw4Uz+1pon6n0RasXpdxHYUG/ffRlEwIQ4I+yvVmtWSfIG/lJePzleFSjKNy9E5w8Np6rE7kZidxtOAPka1e0DVpC26DLw33u2VDBAn9MQlYTHFeZqpABRFtJy/JAG+r9g+vL0ZQsARl7J9/NMSmlPR1RAp030NxM358g04GYQt+Uj46VtW3eBjt8i3K8dGftpr7xLyE1kDfbrBW1nSl4NARHAsXqfe5KZq6Xxkgy9PvHbbblJuso6D3o5Aq29zV6SVCOsjMRHPqDs9VnAu5iJUg+7XhpWC5J1nLyRiCV97MQOTlJLtTJzfO+KSfaA7aXweRFb1krcImxUdv6IJdvSwgPuZ8vKYoe9Sxws5iDXqGRd4jHqEPu52xeuK5c1Mw2XIGgtPxloLgWjndOgh+iIWQuFfV7PXj7OuKxKwj/ETJHJ8gbQVBLf22PiPnlH/CBAg3PLSTKhHO20QAVf1xtp1b0HjWU+3kp78Iu5J1qO+6rMQhbWpREL4HK+NpPlM7AVHa5cg6hxxtO185u46d0byE+bsd7IxQghNHaim/bdrC0ktUH4s7y/eNxiXA8kqvFl8tSASsuXnDviNymLNsb1wsWVw6HNVlakQSPZLEXk7ZkGQQFjeAVcmnT5uWZRx+sw4UHtKDkrafDpKMaTrfuUWbX1H4I4PIF6GjqiAsOLjNAObDWK/u85nNCvvDTDg38XqSABCqZb7yDdf466+DanErVd3DpZ/Mt8tJebOOmvCS7GxFS4290cOodf5L4xWtSO4CfHURj+7jKOaEOt8vk/okvgMyfF1Y5LQqiLY0o6MydKK5dwSNOeclf+tet4pefQdHt1Zc7fP4j3C/+e2Zd/LzFJs/G7STmO9uEY+YbaR4w7Qv/7kkHDe/l1vrOTbGzW9lf03uY41x618gRevOf2bQAHT3g73pL1TX510/fT/cb8JbbH7un5R1lAPLZPMkAN4eiC87fAF5StJxN3moWtJMf7Px84v5ca3h1ZpmHe7BIcb0aZ3HY4aiW//RKSBnZuQn8HYrURZswrg9T5yjTdEawSYKGjF6uhdjrAFQ89XZyXNnkrVP+Mm+kfA0gv3tu6yLy0WQOQAuHhm4vPbSt8kZMnANr7uz+Q0UoiRZmJN8/urstfzPprWE4nR+2jrPa7TzHORzm1u2N7Oy4XSPnoxH7/82D7qCMfVOhQoUKFSpUOI/23f0Jd4vIofskxujAgpzc5rYRIDja7t1B9No1EcjFPdHhxV2v14sKVhtHbwHv0EMnpcmcxGddCVEfvTx3TiJ2+koc+jtqvauhz637sI3kiYrySg8+jxAGbyJm4wFqTdsv+Id7e3R5axbpmWddUQyl3iE/vQ3wLUZ92ERHS8r8yG+5o6n1EIqmTwaPAfcnrR6H/oyYvyjos/EatqEkTqxrlOr9RDEgtJGg52u9voHuPBAo/WGiYvGf2S+7uqrWVY1Q6tQ1eIOm0kSnPOpJmR9EzGMnNrVnKuRTU8ScXHNiboiZP1BR9I6QuZrCfLEnQigtdrhA5vW62sTMFyPU72pd7465zFUxczV6IhTyZfxt5ipl3htQe9D+CZSezvwpEG/CDheG+XiGuKqqNsDtf4M5akX/aOdjLrb2p+CQ0f/8AvP2vknF02ZMzzHMH4iQzRZpnsNcS2du6AiagZVe154Y5k39hP898Ji/avigouKmFPzDBFt3exR2itb9AvOOXg8VwwyXE/NAfI0excxVKgOV+T2NudF6f3x8fJj1SZcZrXHInByieLrjMR+/4WNEP8qAnI9V9DoJ+96o8+05jXn7I1AhNGem50LmdwMNd7cWOEDCPJCBQOA7CXOtSxxIb0Z0NHkMmesfCXnizCnetXBABF3SZfynYLylMb9vhR4E6jGcRQPmb+1/GrHRj8D/EeZJmc8yry0IKw05yvzM1Rjz+xYz4BT+lJ3G/IGdeCanngt0/k5MQhuELZNx/hXmcMxi6x/1AubK6PEtwGs7nXlc5x90FBLNKdyQIoX5oqXQgUJ6LjwFM6+rAxwKQAlPzjOw9rjMGZi3R2i0qupn6OEU4r90TdP792eZqwzzRd9Ao9DoEwm1fzwhUpi/TajXwQ7EIH73xLyu4GZD7xYyP8msQ5nvMjKvzTQyhjizGp2Z0pirLPOnCfqirrx94OFoaPEr0pmPyX2U/WeLWN8gKMxR5kQohfUfiVnNqN8nGhYw/8CaU56+zxxJjogPFq91QxUNPzFzGiBBz0gcpaEHd2SZK102RPouc/VHmL+hk1Qk+RgbUp1JcjIwb1O+xl3ttU/6IJCSZX4aA99lPiMmxlq7QVwU1Fsu5qQlQ4MD7Y24Ol44JWR+T73D7NQJQc9FrH3EykGYq6oaTIfZmQdRF+PhaFswOxrd5WB+rxHJX9rtNqEHvXByYhMyf9YDnbZrj8TXBQELyxw2yvgwqnPoElWKUVYP19FJR55mtUHnNQDpvmzMG1RytfXR7XbpzMTJlUXMg1zH2H90P17o59aCZa6Rb7X9Sa2EubaPy3yeeW9PI5n212K4E/MwSzM0CBLSQwNIZGwi5mGuo8DLg8+TR5b5jCSoME8LL84fw81IjPJJiJOckDBPZhoB83jGHWV+qmugcRLaZmJiEzBv7zkJYNBzhLny9omGImxe/xdcnZu50Xp+eHj42PeJuEokY0GHAtyfmBsvzPevcebj0WlmUEPiKuNKI8yNepdp7Q7JxSl3wPM6IXOUsbz1m9TgxwxzOPSfo62JmUORcJRG70aSa+rhDI3J+Nj8nEkFJ/8aMeadiUpZU2C9w//Hxx11fuxdJu/Qm5+mJ3x1oPRZhDm0LOpAuguGeVTm9PxcZRRTT1QmVOrb1UhlgqGlzGI6h1kaJdRUFPif0iTXJCsklDnbnvZe++zTYD2AFoTw9xHm7WeFGhMZr6f5POzxzHU4KOwsWo1iupytQLLQAuZB3P7ZJxf1Hzokceh0yezYjA9olnnQ2nvtmZrVPkw96GyLm2dqMu3nCdHN5Lld+1YF0tCMUwUyIZOIeajzIFfDkkPthYlzbbEnNZt4xtbrJwa09tRrGSQAODnENyKNgXoODQWVtjSeUQbKR07mejMEtCldmYU3e9KaESiGMaHWbkDzZaHN0DjXYQvklDtUBYY/TZhR/aQb6LvQGQXM69GmYBP60/sEfVD0/ckfjv/p6EQFEelODKNp0KrzYqY3cRP/e4chjx4XzRAx/2wxGLw8fDIrDaNWHH280vDRT3yP+vvtdMorPYOdERcv5LtR1NzH++Rd3p7p9WzBtXO61QM5TKfVHm24BfP0TkI02BqfeQ0v/hD0xsJDAXC/jJPfoyvbzCk95nPIkd4lJsCCc5c279ReeKt29GibkS7Z2J2oNFGhQoUKFSpUqFChQrnxfyA/ggZHox1AAAAAAElFTkSuQmCC;fontSize=25;" parent="uHXM47nCu-cVry_dLeUl-7" vertex="1">
                    <mxGeometry x="730" y="795" width="132" height="128" as="geometry"/>
                </mxCell>
                <mxCell id="uHXM47nCu-cVry_dLeUl-32" value="" style="shape=image;verticalLabelPosition=bottom;verticalAlign=top;imageAspect=0;image=data:image/png,iVBORw0KGgoAAAANSUhEUgAAAPkAAADLCAMAAACbI8UEAAAArlBMVEX///8ArdQ2NjYAq9MArdMyMjLc3Nz//v/V1dU0MjNEQ0M3NTb4+PgwMDApKSk1NTWWlpa/v7+rq6uoqKiNjY16enplZWXk5OQ+PD1RUVEAqdPGxsa1tbX5/v5LS0uioqPx+/3v7++BgYElJSXo+Ptubm7d9PnOzs7q6upiyeM1u9uX2+yv5PDD7fV91Olbx+Gf4O696fMsuNqH1+pdXV3S8vdGwt5nx+McHBxoaGj8lbkSAAAQkklEQVR4nO1di2KquhIVA7WKQG1rVVot1kcVEREf5+7//7GbFxggQehD0LL22ftYgTArM5nMTAKt1SpUqFChQoUKFSpUqFChQoU/jQb8U7OcnetZ9Oe/BGspmUDeTIuW48KASt4BIEkScP+Ywmu1gy9h6vKhaEkuCqjmpSlhgOWwaGkuCEh8KwPKXHaKFueimB4pcUjdtv7SUF+FxCH13R+y97nPMvf/hpNDhj10AQipy3/Jya1lRuUI29pfiOMatSF0bzJj7RI4/pFIzjMlWWZVDsCqaJkugrktRXnDn/x50VJdAm5skCOY7h9wcgc5SRzqfVu0XL+OYRCwx5R+vHmlO/EZLdD6rYfvlg8knrnL4Nad3IqvcTSzuUXL9qs4+BJX5dDFAemmw/elUOU3XqPYAhFzFM8Ar2j5fgM4H7E2QuKYvG0VLOXvoNGo7VKJw0l9V7SQvwGo9KkvmMsJoLnf6Mw2dLnRW8TeN0UL+fOAKl/7Z4wdUV8XLegvYJiB+G3WKByTG8LEB/vt1SjmfgbeiPrNOTlePYJH3Lyt8L1RO0jZmN9cjUJQj+BSv60ahZOZtyyZ3g3V3i07K3NUfbdvyMntMts6Jn87Tm6eJYhhLf5mahTCeoQA5tIqWuSfwVpQjwCC72XpJvZRNGrTI3+UA3m34g4DmK7aVx++oy1/gnIrQMUnh3cMABncQo0CuTcuv42FIhyu0sEN7KNo1FA9gru2gFPxAy+RwYXYoiX/NtbcRRU4lOnqKSeTQYvr1x++D4/cUQ7CktvUFriBa69RcF2YhINzCo9L/OprFHO+RgE4WsEpoiL8lRdid9BP80a5xIQqa4lzCjKL6w3fG7WDaLE8soQmKNdcs5Pjz9YkJWFScH6JDoYzm6vdEesIqq1gFWXk8cJbGL1f7RLjlD+jJaNyS3Ciea3hu2ABEYDoZk92t3tM61dao+AGpnivZ6zE2EAOgT/7kfD9yga70L3Fk5EGJDbnTX6o+r5BvXRlzLf8CjvgTNPoSSZuL8Emrq9GAeNx/lYg34qdiTWa2RuWHx43J4d/BTOVYwqor67M2nnRiQzdmInqEVxs+Hn81dUouPsjYKZurkUqXAu2yoHr2gYtcG+pE/SOq/RodlNq4Ed0NoA/S6VlnpYvmNRPGW35wXVvaEZLDcQdrqHAHkQ1iuvwcsIZzU4dstZR4N+vZolx+NWEm/u4g4RWmy4j+Ldx4KycIE7nt/TyAl5UiZXX12DtjaFwNSk9HGvQRVcOeyCMAkoFhz8tn085IfWVaKH9GmoUAvcmZyqgDwXVd9O/gvB9xy2l4kd0zoxVdNiReZM6/LL8S4xzYTyS6XK0LTjZcSBYhisx4Iwmc31UVsnngkK1uSm5exc9jmbusgrOrd6hVclyh++iKirI7qH4S4ylf1QbB+y8taIcs9KW0wQOhDKbzWWBhRJt/xLXI3iAdsPzkuVdYmykbP/K5Zj55Wo4tZX0gTb0vAbf1PMuGKCMh/+o9tmQoCAIVsKh7S6nVh6Rpz63OCOfyXKLg2j3A+TuH3dODte8EjVUzvB9mra7FQDgH71DxhUTZD3cgAg5ufIZfPqGZkjEBP7Sy6b5tWj9uYw1inOPo6H9gEjz7jzLYBUtMZYxfBdEbyedU9lNf5lBetGjTvkig4tgm3knNxzCGbh7/Fy3bDUKtKFZJClXc7J7zlVZoh2CiRXJgrHjF9C4GpfwHsiVld6icJMNep1cefz7PIU2tzYlA7BJN3nxzoMyObm0B6xBwD1GRAbyKtXL4/SH021mturOZbCVzwxyQN4eEmMPNqnZl+gVBWZ5dggKNjRjzeKEk7zUFkhMcRL3FbDFlou9JndhskQ1Co9fNQQIsuz7NvyDIKMvAr3jGgaQvRSLdwSpX2kKsWw9gg5pSBBSProrZ7s+zKcYh8PW2S1tn9SVAd5CgR7jEVMfCpK/0tQo3EikiVj7m523nlu8k4fTtefaKIhHeSc6PeXhtIMvWLVwh2WY1w5IfXgIyzgwX67WUwsfacTEC34eWgdv6ZNBDP8uxcNW5ORKsQ0a1yOIBwP2f5D16VAjGnI0Ih/mjutTzyeOxfmFWBmvxBeudRxryZIp+UsnkoaJJQtUP1/ZyOPLKe/KEuy+KEWNAi1/Atl211biUJR73PYRhtuNDLM3scMabvg1OakEm8XQPoGlM03s4sUPKEZ2NHONwNouj6JBiy7YcmszyMn9jPjfwXRLu5+n06GFMQw6Jn7O+cHqct/GAn1qScL3pEqtg+Pt3OUGw4Uz+1pon6n0RasXpdxHYUG/ffRlEwIQ4I+yvVmtWSfIG/lJePzleFSjKNy9E5w8Np6rE7kZidxtOAPka1e0DVpC26DLw33u2VDBAn9MQlYTHFeZqpABRFtJy/JAG+r9g+vL0ZQsARl7J9/NMSmlPR1RAp030NxM358g04GYQt+Uj46VtW3eBjt8i3K8dGftpr7xLyE1kDfbrBW1nSl4NARHAsXqfe5KZq6Xxkgy9PvHbbblJuso6D3o5Aq29zV6SVCOsjMRHPqDs9VnAu5iJUg+7XhpWC5J1nLyRiCV97MQOTlJLtTJzfO+KSfaA7aXweRFb1krcImxUdv6IJdvSwgPuZ8vKYoe9Sxws5iDXqGRd4jHqEPu52xeuK5c1Mw2XIGgtPxloLgWjndOgh+iIWQuFfV7PXj7OuKxKwj/ETJHJ8gbQVBLf22PiPnlH/CBAg3PLSTKhHO20QAVf1xtp1b0HjWU+3kp78Iu5J1qO+6rMQhbWpREL4HK+NpPlM7AVHa5cg6hxxtO185u46d0byE+bsd7IxQghNHaim/bdrC0ktUH4s7y/eNxiXA8kqvFl8tSASsuXnDviNymLNsb1wsWVw6HNVlakQSPZLEXk7ZkGQQFjeAVcmnT5uWZRx+sw4UHtKDkrafDpKMaTrfuUWbX1H4I4PIF6GjqiAsOLjNAObDWK/u85nNCvvDTDg38XqSABCqZb7yDdf466+DanErVd3DpZ/Mt8tJebOOmvCS7GxFS4290cOodf5L4xWtSO4CfHURj+7jKOaEOt8vk/okvgMyfF1Y5LQqiLY0o6MydKK5dwSNOeclf+tet4pefQdHt1Zc7fP4j3C/+e2Zd/LzFJs/G7STmO9uEY+YbaR4w7Qv/7kkHDe/l1vrOTbGzW9lf03uY41x618gRevOf2bQAHT3g73pL1TX510/fT/cb8JbbH7un5R1lAPLZPMkAN4eiC87fAF5StJxN3moWtJMf7Px84v5ca3h1ZpmHe7BIcb0aZ3HY4aiW//RKSBnZuQn8HYrURZswrg9T5yjTdEawSYKGjF6uhdjrAFQ89XZyXNnkrVP+Mm+kfA0gv3tu6yLy0WQOQAuHhm4vPbSt8kZMnANr7uz+Q0UoiRZmJN8/urstfzPprWE4nR+2jrPa7TzHORzm1u2N7Oy4XSPnoxH7/82D7qCMfVOhQoUKFSpUOI/23f0Jd4vIofskxujAgpzc5rYRIDja7t1B9No1EcjFPdHhxV2v14sKVhtHbwHv0EMnpcmcxGddCVEfvTx3TiJ2+koc+jtqvauhz637sI3kiYrySg8+jxAGbyJm4wFqTdsv+Id7e3R5axbpmWddUQyl3iE/vQ3wLUZ92ERHS8r8yG+5o6n1EIqmTwaPAfcnrR6H/oyYvyjos/EatqEkTqxrlOr9RDEgtJGg52u9voHuPBAo/WGiYvGf2S+7uqrWVY1Q6tQ1eIOm0kSnPOpJmR9EzGMnNrVnKuRTU8ScXHNiboiZP1BR9I6QuZrCfLEnQigtdrhA5vW62sTMFyPU72pd7465zFUxczV6IhTyZfxt5ipl3htQe9D+CZSezvwpEG/CDheG+XiGuKqqNsDtf4M5akX/aOdjLrb2p+CQ0f/8AvP2vknF02ZMzzHMH4iQzRZpnsNcS2du6AiagZVe154Y5k39hP898Ji/avigouKmFPzDBFt3exR2itb9AvOOXg8VwwyXE/NAfI0excxVKgOV+T2NudF6f3x8fJj1SZcZrXHInByieLrjMR+/4WNEP8qAnI9V9DoJ+96o8+05jXn7I1AhNGem50LmdwMNd7cWOEDCPJCBQOA7CXOtSxxIb0Z0NHkMmesfCXnizCnetXBABF3SZfynYLylMb9vhR4E6jGcRQPmb+1/GrHRj8D/EeZJmc8yry0IKw05yvzM1Rjz+xYz4BT+lJ3G/IGdeCanngt0/k5MQhuELZNx/hXmcMxi6x/1AubK6PEtwGs7nXlc5x90FBLNKdyQIoX5oqXQgUJ6LjwFM6+rAxwKQAlPzjOw9rjMGZi3R2i0qupn6OEU4r90TdP792eZqwzzRd9Ao9DoEwm1fzwhUpi/TajXwQ7EIH73xLyu4GZD7xYyP8msQ5nvMjKvzTQyhjizGp2Z0pirLPOnCfqirrx94OFoaPEr0pmPyX2U/WeLWN8gKMxR5kQohfUfiVnNqN8nGhYw/8CaU56+zxxJjogPFq91QxUNPzFzGiBBz0gcpaEHd2SZK102RPouc/VHmL+hk1Qk+RgbUp1JcjIwb1O+xl3ttU/6IJCSZX4aA99lPiMmxlq7QVwU1Fsu5qQlQ4MD7Y24Ol44JWR+T73D7NQJQc9FrH3EykGYq6oaTIfZmQdRF+PhaFswOxrd5WB+rxHJX9rtNqEHvXByYhMyf9YDnbZrj8TXBQELyxw2yvgwqnPoElWKUVYP19FJR55mtUHnNQDpvmzMG1RytfXR7XbpzMTJlUXMg1zH2H90P17o59aCZa6Rb7X9Sa2EubaPy3yeeW9PI5n212K4E/MwSzM0CBLSQwNIZGwi5mGuo8DLg8+TR5b5jCSoME8LL84fw81IjPJJiJOckDBPZhoB83jGHWV+qmugcRLaZmJiEzBv7zkJYNBzhLny9omGImxe/xdcnZu50Xp+eHj42PeJuEokY0GHAtyfmBsvzPevcebj0WlmUEPiKuNKI8yNepdp7Q7JxSl3wPM6IXOUsbz1m9TgxwxzOPSfo62JmUORcJRG70aSa+rhDI3J+Nj8nEkFJ/8aMeadiUpZU2C9w//Hxx11fuxdJu/Qm5+mJ3x1oPRZhDm0LOpAuguGeVTm9PxcZRRTT1QmVOrb1UhlgqGlzGI6h1kaJdRUFPif0iTXJCsklDnbnvZe++zTYD2AFoTw9xHm7WeFGhMZr6f5POzxzHU4KOwsWo1iupytQLLQAuZB3P7ZJxf1Hzokceh0yezYjA9olnnQ2nvtmZrVPkw96GyLm2dqMu3nCdHN5Lld+1YF0tCMUwUyIZOIeajzIFfDkkPthYlzbbEnNZt4xtbrJwa09tRrGSQAODnENyKNgXoODQWVtjSeUQbKR07mejMEtCldmYU3e9KaESiGMaHWbkDzZaHN0DjXYQvklDtUBYY/TZhR/aQb6LvQGQXM69GmYBP60/sEfVD0/ckfjv/p6EQFEelODKNp0KrzYqY3cRP/e4chjx4XzRAx/2wxGLw8fDIrDaNWHH280vDRT3yP+vvtdMorPYOdERcv5LtR1NzH++Rd3p7p9WzBtXO61QM5TKfVHm24BfP0TkI02BqfeQ0v/hD0xsJDAXC/jJPfoyvbzCk95nPIkd4lJsCCc5c279ReeKt29GibkS7Z2J2oNFGhQoUKFSpUqFChQrnxfyA/ggZHox1AAAAAAElFTkSuQmCC;fontSize=25;" parent="uHXM47nCu-cVry_dLeUl-7" vertex="1">
                    <mxGeometry x="730" y="177" width="132" height="128" as="geometry"/>
                </mxCell>
                <mxCell id="uHXM47nCu-cVry_dLeUl-19" value="&lt;div style=&quot;text-align: center;&quot;&gt;&lt;span style=&quot;background-color: initial;&quot;&gt;&lt;font face=&quot;Anton&quot; color=&quot;#999999&quot;&gt;Processamento dos Dados&lt;/font&gt;&lt;/span&gt;&lt;/div&gt;" style="text;whiteSpace=wrap;html=1;fontSize=50;" parent="1" vertex="1">
                    <mxGeometry x="580" width="615" height="50" as="geometry"/>
                </mxCell>
                <mxCell id="uHXM47nCu-cVry_dLeUl-23" style="edgeStyle=none;html=1;fontSize=20;endSize=25;strokeWidth=4;" parent="1" source="uHXM47nCu-cVry_dLeUl-22" target="uHXM47nCu-cVry_dLeUl-10" edge="1">
                    <mxGeometry relative="1" as="geometry"/>
                </mxCell>
                <mxCell id="uHXM47nCu-cVry_dLeUl-33" value="&lt;font style=&quot;font-size: 20px;&quot;&gt;Consumo e Visualização&lt;br&gt;&lt;/font&gt;" style="swimlane;whiteSpace=wrap;html=1;fontColor=#999999;fontFamily=Anton;fontSource=https%3A%2F%2Ffonts.googleapis.com%2Fcss%3Ffamily%3DAnton;labelBackgroundColor=none;labelBorderColor=none;dashed=1;fontStyle=0;gradientColor=none;fontSize=15;swimlaneLine=0;verticalAlign=top;startSize=18;" parent="1" vertex="1">
                    <mxGeometry x="1700" y="82" width="1244" height="1016" as="geometry">
                        <mxRectangle x="37" y="80" width="132" height="26" as="alternateBounds"/>
                    </mxGeometry>
                </mxCell>
                <mxCell id="uHXM47nCu-cVry_dLeUl-34" style="edgeStyle=none;html=1;entryX=0.006;entryY=0.665;entryDx=0;entryDy=0;entryPerimeter=0;fontSize=25;strokeWidth=4;endSize=25;exitX=1;exitY=0.5;exitDx=0;exitDy=0;exitPerimeter=0;" parent="uHXM47nCu-cVry_dLeUl-33" source="uHXM47nCu-cVry_dLeUl-46" edge="1">
                    <mxGeometry relative="1" as="geometry">
                        <mxPoint x="550.9999999999991" y="503.20385638703374" as="sourcePoint"/>
                        <mxPoint x="959.1879999999992" y="505.6700000000001" as="targetPoint"/>
                    </mxGeometry>
                </mxCell>
                <mxCell id="uHXM47nCu-cVry_dLeUl-35" style="edgeStyle=none;html=1;exitX=1;exitY=0;exitDx=0;exitDy=0;exitPerimeter=0;entryX=0;entryY=0.5;entryDx=0;entryDy=0;entryPerimeter=0;strokeWidth=4;fontSize=25;endSize=25;" parent="uHXM47nCu-cVry_dLeUl-33" source="uHXM47nCu-cVry_dLeUl-46" edge="1">
                    <mxGeometry relative="1" as="geometry">
                        <Array as="points">
                            <mxPoint x="690" y="386"/>
                            <mxPoint x="690" y="167"/>
                        </Array>
                        <mxPoint x="550.9999999999991" y="386" as="sourcePoint"/>
                        <mxPoint x="953" y="170.99999999999955" as="targetPoint"/>
                    </mxGeometry>
                </mxCell>
                <mxCell id="uHXM47nCu-cVry_dLeUl-36" style="edgeStyle=none;html=1;exitX=1;exitY=1;exitDx=0;exitDy=0;exitPerimeter=0;entryX=0;entryY=0.5;entryDx=0;entryDy=0;entryPerimeter=0;strokeWidth=4;fontSize=25;endSize=25;" parent="uHXM47nCu-cVry_dLeUl-33" source="uHXM47nCu-cVry_dLeUl-46" edge="1">
                    <mxGeometry relative="1" as="geometry">
                        <Array as="points">
                            <mxPoint x="683" y="619"/>
                            <mxPoint x="683" y="782"/>
                        </Array>
                        <mxPoint x="550.9999999999991" y="619" as="sourcePoint"/>
                        <mxPoint x="959" y="781.9999999999995" as="targetPoint"/>
                    </mxGeometry>
                </mxCell>
                <mxCell id="uHXM47nCu-cVry_dLeUl-46" value="&lt;font style=&quot;font-size: 25px;&quot;&gt;Aws Athema&lt;/font&gt;" style="sketch=0;points=[[0,0,0],[0.25,0,0],[0.5,0,0],[0.75,0,0],[1,0,0],[0,1,0],[0.25,1,0],[0.5,1,0],[0.75,1,0],[1,1,0],[0,0.25,0],[0,0.5,0],[0,0.75,0],[1,0.25,0],[1,0.5,0],[1,0.75,0]];outlineConnect=0;fontColor=#232F3E;gradientColor=#945DF2;gradientDirection=north;fillColor=#5A30B5;strokeColor=#ffffff;dashed=0;verticalLabelPosition=bottom;verticalAlign=top;align=center;html=1;fontSize=12;fontStyle=0;aspect=fixed;shape=mxgraph.aws4.resourceIcon;resIcon=mxgraph.aws4.athena;" parent="uHXM47nCu-cVry_dLeUl-33" vertex="1">
                    <mxGeometry x="183" y="380" width="237" height="237" as="geometry"/>
                </mxCell>
                <mxCell id="uHXM47nCu-cVry_dLeUl-49" value="&lt;font style=&quot;font-size: 25px;&quot;&gt;Data View&lt;/font&gt;" style="sketch=0;points=[[0,0,0],[0.25,0,0],[0.5,0,0],[0.75,0,0],[1,0,0],[0,1,0],[0.25,1,0],[0.5,1,0],[0.75,1,0],[1,1,0],[0,0.25,0],[0,0.5,0],[0,0.75,0],[1,0.25,0],[1,0.5,0],[1,0.75,0]];outlineConnect=0;fontColor=#232F3E;gradientColor=#945DF2;gradientDirection=north;fillColor=#5A30B5;strokeColor=#ffffff;dashed=0;verticalLabelPosition=bottom;verticalAlign=top;align=center;html=1;fontSize=12;fontStyle=0;aspect=fixed;shape=mxgraph.aws4.resourceIcon;resIcon=mxgraph.aws4.quicksight;" parent="uHXM47nCu-cVry_dLeUl-33" vertex="1">
                    <mxGeometry x="966" y="393.5" width="210" height="210" as="geometry"/>
                </mxCell>
                <mxCell id="uHXM47nCu-cVry_dLeUl-50" value="&lt;font style=&quot;font-size: 25px;&quot;&gt;Machine Learning&lt;/font&gt;" style="sketch=0;points=[[0,0,0],[0.25,0,0],[0.5,0,0],[0.75,0,0],[1,0,0],[0,1,0],[0.25,1,0],[0.5,1,0],[0.75,1,0],[1,1,0],[0,0.25,0],[0,0.5,0],[0,0.75,0],[1,0.25,0],[1,0.5,0],[1,0.75,0]];outlineConnect=0;fontColor=#232F3E;gradientColor=#4AB29A;gradientDirection=north;fillColor=#116D5B;strokeColor=#ffffff;dashed=0;verticalLabelPosition=bottom;verticalAlign=top;align=center;html=1;fontSize=12;fontStyle=0;aspect=fixed;shape=mxgraph.aws4.resourceIcon;resIcon=mxgraph.aws4.machine_learning;" parent="uHXM47nCu-cVry_dLeUl-33" vertex="1">
                    <mxGeometry x="966" y="683" width="215" height="215" as="geometry"/>
                </mxCell>
                <mxCell id="uHXM47nCu-cVry_dLeUl-51" value="&lt;font style=&quot;font-size: 25px;&quot;&gt;Gateway API&lt;/font&gt;" style="sketch=0;points=[[0,0,0],[0.25,0,0],[0.5,0,0],[0.75,0,0],[1,0,0],[0,1,0],[0.25,1,0],[0.5,1,0],[0.75,1,0],[1,1,0],[0,0.25,0],[0,0.5,0],[0,0.75,0],[1,0.25,0],[1,0.5,0],[1,0.75,0]];outlineConnect=0;fontColor=#232F3E;gradientColor=#945DF2;gradientDirection=north;fillColor=#5A30B5;strokeColor=#ffffff;dashed=0;verticalLabelPosition=bottom;verticalAlign=top;align=center;html=1;fontSize=12;fontStyle=0;aspect=fixed;shape=mxgraph.aws4.resourceIcon;resIcon=mxgraph.aws4.api_gateway;" parent="uHXM47nCu-cVry_dLeUl-33" vertex="1">
                    <mxGeometry x="956" y="73" width="211" height="211" as="geometry"/>
                </mxCell>
                <mxCell id="uHXM47nCu-cVry_dLeUl-47" style="edgeStyle=none;html=1;entryX=0;entryY=0.5;entryDx=0;entryDy=0;entryPerimeter=0;strokeWidth=4;fontSize=25;endSize=25;" parent="1" source="uHXM47nCu-cVry_dLeUl-25" target="uHXM47nCu-cVry_dLeUl-46" edge="1">
                    <mxGeometry relative="1" as="geometry">
                        <Array as="points">
                            <mxPoint x="1761" y="864"/>
                            <mxPoint x="1761" y="581"/>
                        </Array>
                    </mxGeometry>
                </mxCell>
            </root>
        </mxGraphModel>
    </diagram>
</mxfile>